<svg width="28" height="28" viewBox="0 0 28 28" fill="none" xmlns="http://www.w3.org/2000/svg">
<path fill-rule="evenodd" clip-rule="evenodd" d="M4.10059 4.10047L7.71247 7.7124C9.32159 6.103 11.5447 5.10783 14.0001 5.10783C18.9112 5.10783 22.8923 9.08897 22.8923 14.0001H28.0001C28.0001 6.26788 21.732 0 14.0001 0C10.134 0 6.63412 1.5669 4.10059 4.10047V4.10047Z" fill="#EF806F"/>
<path fill-rule="evenodd" clip-rule="evenodd" d="M7.7123 7.71239L4.10042 4.10046C1.56714 6.63403 0 10.134 0 14.0001C0 21.7321 6.26806 28 13.9997 28L14 22.8924C9.08912 22.8924 5.10778 18.911 5.10778 14.0001C5.10778 11.5444 6.10318 9.32154 7.7123 7.71239V7.71239Z" fill="#9FD7E8"/>
<path fill-rule="evenodd" clip-rule="evenodd" d="M22.8922 14.0001C22.8922 18.911 18.9111 22.8924 14 22.8924V28C21.7319 28 28 21.7321 28 14.0001H22.8922Z" fill="#FAE961"/>
</svg>
