<svg width="195" height="282" viewBox="0 0 195 282" fill="none" xmlns="http://www.w3.org/2000/svg">
<path d="M143.055 56.5272C144.895 58.367 145.938 60.8508 145.938 63.4572V252.562C145.938 257.99 141.553 262.375 136.125 262.375H-60.125C-65.5525 262.375 -69.9375 257.99 -69.9375 252.562V-2.5625C-69.9375 -7.99004 -65.5525 -12.375 -60.125 -12.375H70.1053C72.7117 -12.375 75.2262 -11.3324 77.066 -9.49258L143.055 56.5272ZM123.307 67.9648L65.5977 10.2551V67.9648H123.307ZM-20.875 115.801C-21.5256 115.801 -22.1496 116.059 -22.6096 116.519C-23.0697 116.979 -23.3281 117.603 -23.3281 118.254V132.973C-23.3281 133.623 -23.0697 134.247 -22.6096 134.707C-22.1496 135.167 -21.5256 135.426 -20.875 135.426H96.875C97.5256 135.426 98.1496 135.167 98.6096 134.707C99.0697 134.247 99.3281 133.623 99.3281 132.973V118.254C99.3281 117.603 99.0697 116.979 98.6096 116.519C98.1496 116.059 97.5256 115.801 96.875 115.801H-20.875ZM-20.875 157.504C-21.5256 157.504 -22.1496 157.762 -22.6096 158.222C-23.0697 158.682 -23.3281 159.306 -23.3281 159.957V174.676C-23.3281 175.326 -23.0697 175.95 -22.6096 176.41C-22.1496 176.87 -21.5256 177.129 -20.875 177.129H35.5469C36.1975 177.129 36.8214 176.87 37.2815 176.41C37.7415 175.95 38 175.326 38 174.676V159.957C38 159.306 37.7415 158.682 37.2815 158.222C36.8214 157.762 36.1975 157.504 35.5469 157.504H-20.875Z" fill="#F4F4F8"/>
</svg>
