<svg width="30" height="30" viewBox="0 0 30 30" fill="none" xmlns="http://www.w3.org/2000/svg">
<circle cx="15" cy="15" r="15" fill="#262626"/>
<path d="M20.6922 10.2977C20.6922 10.5037 20.6312 10.7051 20.5168 10.8764C20.4024 11.0477 20.2397 11.1812 20.0494 11.26C19.8591 11.3389 19.6497 11.3595 19.4477 11.3194C19.2456 11.2792 19.06 11.18 18.9144 11.0343C18.7687 10.8887 18.6695 10.7031 18.6293 10.501C18.5892 10.299 18.6098 10.0896 18.6887 9.89929C18.7675 9.70899 18.901 9.54634 19.0723 9.43192C19.2436 9.31751 19.445 9.25646 19.651 9.2565C19.9271 9.25656 20.1919 9.36627 20.3872 9.56153C20.5824 9.75678 20.6921 10.0216 20.6922 10.2977ZM24 15L23.9998 15.0131L23.9406 18.789C23.9253 20.1505 23.3776 21.4519 22.4148 22.4147C21.4521 23.3774 20.1507 23.9251 18.7892 23.9405L15 24L14.9869 23.9997L11.211 23.9408C9.84946 23.9254 8.54806 23.3777 7.58525 22.415C6.62243 21.4522 6.07471 20.1508 6.05927 18.7893L6 15L6.00026 14.9869L6.05923 11.2108C6.07471 9.84934 6.62245 8.54799 7.58525 7.58524C8.54805 6.62249 9.84943 6.07481 11.2109 6.0594L15 6L15.0131 6.00026L18.789 6.05923C20.1505 6.07464 21.4519 6.62233 22.4146 7.58509C23.3774 8.54785 23.9251 9.8492 23.9405 11.2107L24 15ZM22.3238 15L22.2649 11.2371C22.2544 10.3116 21.8821 9.42689 21.2276 8.77238C20.5731 8.11787 19.6884 7.74554 18.7629 7.73507L15 7.67631L11.2371 7.73507C10.3116 7.74556 9.4269 8.11789 8.77239 8.7724C8.11787 9.4269 7.74553 10.3116 7.73503 11.2371L7.67627 15L7.73503 18.7629C7.7455 19.6884 8.11783 20.5731 8.77235 21.2276C9.42687 21.8821 10.3116 22.2545 11.2371 22.2649L15 22.3237L18.7629 22.2649C19.6884 22.2545 20.5731 21.8822 21.2276 21.2277C21.8822 20.5731 22.2545 19.6884 22.2649 18.7629L22.3238 15ZM19.6217 15C19.6217 15.9141 19.3507 16.8077 18.8428 17.5677C18.335 18.3278 17.6131 18.9201 16.7686 19.27C15.9241 19.6198 14.9948 19.7113 14.0983 19.5329C13.2017 19.3546 12.3782 18.9144 11.7319 18.2681C11.0855 17.6217 10.6453 16.7982 10.467 15.9016C10.2887 15.0051 10.3802 14.0758 10.73 13.2313C11.0798 12.3868 11.6722 11.665 12.4323 11.1571C13.1923 10.6493 14.0859 10.3782 15 10.3782C16.2253 10.3796 17.4001 10.867 18.2665 11.7335C19.133 12.5999 19.6203 13.7747 19.6217 15ZM17.9457 15C17.9457 14.4174 17.7729 13.8479 17.4493 13.3634C17.1256 12.879 16.6655 12.5014 16.1272 12.2785C15.589 12.0555 14.9967 11.9972 14.4253 12.1109C13.8538 12.2245 13.329 12.5051 12.917 12.9171C12.505 13.329 12.2245 13.8539 12.1108 14.4253C11.9972 14.9968 12.0555 15.5891 12.2785 16.1273C12.5014 16.6656 12.879 17.1256 13.3634 17.4493C13.8479 17.773 14.4174 17.9458 15 17.9457C15.781 17.9448 16.5297 17.6342 17.0819 17.0819C17.6341 16.5297 17.9448 15.781 17.9457 15H17.9457Z" fill="white"/>
</svg>
