<svg width="520" height="520" viewBox="0 0 520 520" fill="none" xmlns="http://www.w3.org/2000/svg">
<path d="M433.977 146.605C437.023 149.652 438.75 153.766 438.75 158.082V471.25C438.75 480.238 431.488 487.5 422.5 487.5H97.5C88.5117 487.5 81.25 480.238 81.25 471.25V48.75C81.25 39.7617 88.5117 32.5 97.5 32.5H313.168C317.484 32.5 321.648 34.2266 324.695 37.2734L433.977 146.605ZM401.273 165.547L305.703 69.9766V165.547H401.273ZM162.5 244.766C161.423 244.766 160.389 245.194 159.627 245.956C158.866 246.717 158.438 247.751 158.438 248.828V273.203C158.438 274.281 158.866 275.314 159.627 276.076C160.389 276.838 161.423 277.266 162.5 277.266H357.5C358.577 277.266 359.611 276.838 360.373 276.076C361.134 275.314 361.562 274.281 361.562 273.203V248.828C361.562 247.751 361.134 246.717 360.373 245.956C359.611 245.194 358.577 244.766 357.5 244.766H162.5ZM162.5 313.828C161.423 313.828 160.389 314.256 159.627 315.018C158.866 315.78 158.438 316.813 158.438 317.891V342.266C158.438 343.343 158.866 344.376 159.627 345.138C160.389 345.9 161.423 346.328 162.5 346.328H255.938C257.015 346.328 258.048 345.9 258.81 345.138C259.572 344.376 260 343.343 260 342.266V317.891C260 316.813 259.572 315.78 258.81 315.018C258.048 314.256 257.015 313.828 255.938 313.828H162.5Z" fill="#F4F4F8"/>
</svg>
