<svg width="340" height="253" viewBox="0 0 340 253" fill="none" xmlns="http://www.w3.org/2000/svg">
<ellipse cx="135.695" cy="30.2252" rx="9.1214" ry="9.14193" fill="#262626"/>
<ellipse cx="199.544" cy="30.2252" rx="9.12141" ry="9.14193" fill="#262626"/>
<rect x="135.694" y="21.0833" width="64.1348" height="18.2839" fill="#262626"/>
<rect x="126.573" y="30.2256" width="18.2428" height="33.7109" fill="#262626"/>
<rect x="190.423" y="30.2256" width="18.2428" height="33.7109" fill="#262626"/>
<ellipse cx="81.9168" cy="52.8585" rx="3.80058" ry="3.77744" fill="#262626"/>
<ellipse cx="108.521" cy="52.8585" rx="3.80059" ry="3.77744" fill="#262626"/>
<rect x="81.917" y="49.0811" width="26.7229" height="6.49247" fill="#262626"/>
<ellipse cx="226.719" cy="52.8585" rx="3.8006" ry="3.77744" fill="#262626"/>
<ellipse cx="253.323" cy="52.8585" rx="3.80059" ry="3.77744" fill="#262626"/>
<rect x="226.719" y="49.0811" width="26.7229" height="6.49247" fill="#262626"/>
<ellipse cx="74.4101" cy="72.7919" rx="19.9531" ry="19.998" fill="#EF806F"/>
<ellipse cx="260.829" cy="72.7919" rx="19.9531" ry="19.998" fill="#EF806F"/>
<ellipse cx="74.4101" cy="181.924" rx="19.9531" ry="19.998" fill="#EF806F"/>
<ellipse cx="260.829" cy="181.924" rx="19.9531" ry="19.998" fill="#EF806F"/>
<rect x="74.4102" y="52.7939" width="186.419" height="39.9959" fill="#EF806F"/>
<rect x="74.4102" y="161.926" width="186.419" height="39.996" fill="#EF806F"/>
<rect x="54.457" y="72.792" width="39.9061" height="109.132" fill="#EF806F"/>
<rect x="240.876" y="72.792" width="39.9061" height="109.132" fill="#EF806F"/>
<rect x="54.457" y="72.792" width="226.325" height="109.132" fill="#EF806F"/>
<ellipse cx="167.905" cy="128.215" rx="59.8592" ry="59.9939" fill="white"/>
<rect x="126.573" y="113.931" width="82.0926" height="26.8544" fill="#EF806F"/>
<rect x="154.223" y="168.497" width="82.2773" height="26.7941" transform="rotate(-90 154.223 168.497)" fill="#EF806F"/>
<rect x="25.9531" y="102.47" width="84.1842" height="117.095" fill="#262626"/>
<rect x="31.6606" y="108.182" width="72.7694" height="102.815" fill="white"/>
<rect x="56.7729" y="100.757" width="28.537" height="9.1391" fill="#FAED61"/>
<path fill-rule="evenodd" clip-rule="evenodd" d="M70.8989 103.042C74.1298 103.042 76.749 100.42 76.749 97.1868C76.749 93.9533 74.1298 91.332 70.8989 91.332C67.668 91.332 65.0488 93.9533 65.0488 97.1868C65.0488 100.42 67.668 103.042 70.8989 103.042ZM70.8989 100.757C72.869 100.757 74.466 99.1584 74.466 97.1868C74.466 95.2151 72.869 93.6168 70.8989 93.6168C68.9288 93.6168 67.3318 95.2151 67.3318 97.1868C67.3318 99.1584 68.9288 100.757 70.8989 100.757Z" fill="#FAED61"/>
<rect x="40.5068" y="152.164" width="20.832" height="2.28478" fill="#EAEAF0"/>
<rect x="40.5068" y="123.604" width="37.6689" height="2.28477" fill="#EAEAF0"/>
<rect x="40.5068" y="180.724" width="37.6689" height="2.28479" fill="#EAEAF0"/>
<rect x="40.5068" y="159.019" width="30.5346" height="2.28477" fill="#EAEAF0"/>
<rect x="40.5068" y="130.459" width="55.0764" height="2.28478" fill="#EAEAF0"/>
<rect x="40.5068" y="187.578" width="55.0764" height="2.28475" fill="#EAEAF0"/>
<rect x="40.5068" y="165.873" width="30.5346" height="2.28477" fill="#EAEAF0"/>
<rect x="40.5068" y="137.313" width="55.0764" height="2.28477" fill="#EAEAF0"/>
<rect x="40.5068" y="194.433" width="55.0764" height="2.28479" fill="#EAEAF0"/>
<path d="M95.1694 155.596C94.9037 154.98 94.5207 154.422 94.0416 153.953C93.5623 153.483 92.9971 153.109 92.3768 152.852C91.7336 152.585 91.0437 152.448 90.3473 152.45C89.3702 152.45 88.4168 152.717 87.5884 153.223C87.3902 153.344 87.2019 153.477 87.0235 153.622C86.8451 153.477 86.6568 153.344 86.4586 153.223C85.6302 152.717 84.6769 152.45 83.6998 152.45C82.9962 152.45 82.3144 152.585 81.6702 152.852C81.0479 153.11 80.487 153.481 80.0054 153.953C79.5257 154.422 79.1426 154.98 78.8776 155.596C78.6021 156.236 78.4614 156.917 78.4614 157.617C78.4614 158.277 78.5962 158.966 78.8638 159.666C79.0877 160.251 79.4088 160.858 79.8191 161.471C80.4692 162.441 81.363 163.452 82.4729 164.478C84.3122 166.178 86.1336 167.352 86.2109 167.4L86.6806 167.701C86.8887 167.834 87.1563 167.834 87.3644 167.701L87.8341 167.4C87.9114 167.35 89.7309 166.178 91.5721 164.478C92.682 163.452 93.5759 162.441 94.226 161.471C94.6362 160.858 94.9593 160.251 95.1813 159.666C95.4488 158.966 95.5836 158.277 95.5836 157.617C95.5856 156.917 95.4449 156.236 95.1694 155.596Z" fill="#EF806F"/>
<rect x="243.649" y="146.552" width="62.8637" height="67.688" fill="#FAE961"/>
<rect x="240.876" y="143.316" width="68.4105" height="3.23608" fill="#FAE961"/>
<rect x="240.876" y="140.08" width="68.4105" height="3.23607" fill="#F8F8FA"/>
<rect x="243.727" y="123.072" width="62.7096" height="17.1411" fill="#F8F8FA"/>
<rect x="247.432" y="123.072" width="5.98587" height="17.1411" fill="#EAEAF0"/>
<rect x="259.689" y="123.072" width="6.27094" height="17.1411" fill="#EAEAF0"/>
<rect x="271.946" y="123.072" width="6.271" height="17.1411" fill="#EAEAF0"/>
<rect x="284.202" y="123.072" width="6.271" height="17.1411" fill="#EAEAF0"/>
<rect x="296.745" y="123.072" width="5.98593" height="17.1411" fill="#EAEAF0"/>
<rect x="260.29" y="155.452" width="46.2234" height="49.8896" fill="#F8F8FA"/>
<rect x="273.541" y="182.689" width="32.9727" height="2.15739" fill="#EAEAF0"/>
<rect x="278.779" y="163.002" width="22.4955" height="14.5623" fill="#11B7E9"/>
<rect x="273.541" y="189.161" width="32.9727" height="2.15739" fill="#EAEAF0"/>
<rect x="273.541" y="195.634" width="32.9727" height="2.15735" fill="#EAEAF0"/>
<ellipse cx="275.081" cy="214.24" rx="31.4319" ry="5.39347" fill="#FAE961"/>
<ellipse cx="283.402" cy="205.207" rx="23.1117" ry="3.91027" fill="#F8F8FA"/>
<rect x="214.082" y="207.636" width="5.70088" height="11.4274" fill="#EF806F"/>
<ellipse cx="219.783" cy="213.349" rx="5.70087" ry="5.71371" fill="#EF806F"/>
<rect x="214.082" y="219.063" width="5.70087" height="11.4274" transform="rotate(-180 214.082 219.063)" fill="#F8F8FA"/>
<ellipse cx="208.381" cy="213.35" rx="5.70087" ry="5.7137" transform="rotate(-180 208.381 213.35)" fill="#F8F8FA"/>
<ellipse rx="1.42523" ry="5.7137" transform="matrix(1 8.76186e-08 8.72274e-08 -1 214.082 213.35)" fill="#F8F8FA"/>
<rect width="5.70173" height="11.4257" transform="matrix(0.96578 -0.259362 0.258277 0.966071 233.312 217.921)" fill="#262626"/>
<ellipse rx="5.70175" ry="5.71284" transform="matrix(0.96578 -0.259362 0.258277 0.966071 240.295 221.962)" fill="#262626"/>
<rect width="5.70173" height="11.4257" transform="matrix(-0.96578 0.259363 -0.258276 -0.966071 236.264 228.959)" fill="#F8F8FA"/>
<ellipse rx="5.70172" ry="5.71282" transform="matrix(-0.96578 0.259362 -0.258277 -0.966071 229.282 224.919)" fill="#F8F8FA"/>
<ellipse rx="1.42544" ry="5.71286" transform="matrix(0.96578 -0.259362 -0.258277 -0.966071 234.788 223.44)" fill="#F8F8FA"/>
<rect width="5.70173" height="11.4257" transform="matrix(0.96578 0.259363 -0.258276 0.966071 193.271 216.307)" fill="#11B7E9"/>
<ellipse rx="5.70174" ry="5.71286" transform="matrix(0.96578 0.259363 -0.258276 0.966071 197.303 223.304)" fill="#11B7E9"/>
<rect width="5.70172" height="11.4257" transform="matrix(-0.96578 -0.259363 0.258276 -0.966071 190.32 227.344)" fill="#F8F8FA"/>
<ellipse rx="5.70173" ry="5.71284" transform="matrix(-0.96578 -0.259362 0.258277 -0.966071 186.289 220.346)" fill="#F8F8FA"/>
<ellipse rx="1.42542" ry="5.71286" transform="matrix(0.965779 0.259365 0.258274 -0.966072 191.795 221.825)" fill="#F8F8FA"/>
</svg>
