<svg width="340" height="253" viewBox="0 0 340 253" fill="none" xmlns="http://www.w3.org/2000/svg">
<rect x="61.7266" y="32.1221" width="220.348" height="177.718" fill="#F4F4F8"/>
<rect x="75.498" y="166.79" width="27.5434" height="27.596" fill="#F3CD8E"/>
<rect width="29.7469" height="3.31154" transform="matrix(1 0 0 -1 74.3965 197.698)" fill="#F3CD8E"/>
<rect x="75.498" y="167.894" width="27.5434" height="25.3883" fill="#9FD7E8"/>
<path d="M103.041 167.894L75.498 193.282V167.894H103.041Z" fill="#B3DFEC"/>
<rect x="61.7266" y="209.84" width="220.348" height="22.0768" fill="#EAEAF0"/>
<rect x="117.364" y="21.0835" width="82.0795" height="11.0384" fill="#EAEAF0"/>
<rect x="85.4141" y="92.833" width="16.5261" height="5.5192" fill="#EAEAF0"/>
<rect x="101.94" y="98.3521" width="16.5261" height="5.5192" fill="#EAEAF0"/>
<rect x="85.4141" y="151.889" width="16.5261" height="5.51921" fill="#EAEAF0"/>
<rect x="162.536" y="118.221" width="16.5261" height="5.5192" fill="#EAEAF0"/>
<rect x="129.484" y="166.79" width="29.7469" height="61.815" fill="#F3CD8E"/>
<rect width="33.0521" height="3.31151" transform="matrix(1 0 0 -1 127.831 231.917)" fill="#363636"/>
<rect x="131.687" y="168.998" width="11.5683" height="17.6614" fill="#F4F4F8"/>
<rect x="131.687" y="208.736" width="11.5683" height="17.6614" fill="#F4F4F8"/>
<rect x="131.687" y="188.867" width="11.5683" height="17.6615" fill="#F4F4F8"/>
<rect x="145.459" y="168.998" width="11.5682" height="17.6614" fill="#F4F4F8"/>
<rect x="145.459" y="188.867" width="11.5682" height="17.6615" fill="#F4F4F8"/>
<rect x="145.459" y="208.736" width="11.5682" height="17.6614" fill="#F4F4F8"/>
<rect x="132.789" y="170.102" width="9.36479" height="15.4538" fill="#F3CD8E"/>
<rect x="146.561" y="170.102" width="9.36479" height="15.4538" fill="#F3CD8E"/>
<rect x="132.789" y="189.971" width="9.36479" height="15.4538" fill="#F3CD8E"/>
<rect x="146.561" y="189.971" width="9.36479" height="15.4538" fill="#F3CD8E"/>
<rect x="132.789" y="209.84" width="9.36479" height="15.4538" fill="#F3CD8E"/>
<rect x="146.561" y="209.84" width="9.36479" height="15.4538" fill="#F3CD8E"/>
<ellipse cx="132.238" cy="197.698" rx="1.65261" ry="1.65576" fill="#FAE961"/>
<rect x="185.672" y="166.79" width="27.5434" height="27.596" fill="#F3CD8E"/>
<rect width="29.7469" height="3.31154" transform="matrix(1 0 0 -1 184.57 197.698)" fill="#F3CD8E"/>
<rect x="185.672" y="167.894" width="27.5434" height="25.3883" fill="#9FD7E8"/>
<path d="M213.215 167.894L185.672 193.282V167.894H213.215Z" fill="#B3DFEC"/>
<rect x="240.759" y="166.79" width="27.5435" height="27.596" fill="#F3CD8E"/>
<rect width="29.7469" height="3.31154" transform="matrix(1 0 0 -1 239.657 197.698)" fill="#F3CD8E"/>
<rect x="240.759" y="167.894" width="27.5435" height="25.3883" fill="#9FD7E8"/>
<path d="M268.302 167.894L240.759 193.282V167.894H268.302Z" fill="#B3DFEC"/>
<rect x="75.498" y="111.598" width="27.5434" height="27.596" fill="#F3CD8E"/>
<rect width="29.7469" height="3.31152" transform="matrix(1 0 0 -1 74.3965 142.506)" fill="#F3CD8E"/>
<rect x="75.498" y="112.702" width="27.5434" height="25.3883" fill="#9FD7E8"/>
<path d="M103.041 112.702L75.498 138.09V112.702H103.041Z" fill="#B3DFEC"/>
<rect x="130.585" y="111.598" width="27.5434" height="27.596" fill="#F3CD8E"/>
<rect width="29.7469" height="3.31152" transform="matrix(1 0 0 -1 129.483 142.506)" fill="#F3CD8E"/>
<rect x="130.585" y="112.702" width="27.5434" height="25.3883" fill="#9FD7E8"/>
<path d="M158.128 112.702L130.585 138.09V112.702H158.128Z" fill="#B3DFEC"/>
<rect x="185.672" y="111.598" width="27.5434" height="27.596" fill="#F3CD8E"/>
<rect width="29.7469" height="3.31154" transform="matrix(1 0 0 -1 184.57 142.506)" fill="#F3CD8E"/>
<rect x="185.672" y="112.702" width="27.5434" height="25.3883" fill="#9FD7E8"/>
<path d="M213.215 112.702L185.672 138.09V112.702H213.215Z" fill="#B3DFEC"/>
<rect x="240.759" y="111.598" width="27.5435" height="27.596" fill="#F3CD8E"/>
<rect width="29.7469" height="3.31152" transform="matrix(1 0 0 -1 239.657 142.506)" fill="#F3CD8E"/>
<rect x="240.759" y="112.702" width="27.5435" height="25.3883" fill="#9FD7E8"/>
<path d="M268.302 112.702L240.759 138.09V112.702H268.302Z" fill="#B3DFEC"/>
<rect x="75.498" y="56.4062" width="27.5434" height="27.596" fill="#F3CD8E"/>
<rect width="29.7469" height="3.31152" transform="matrix(1 0 0 -1 74.3965 87.314)" fill="#F3CD8E"/>
<rect x="75.498" y="57.5103" width="27.5434" height="25.3883" fill="#9FD7E8"/>
<path d="M103.041 57.5103L75.498 82.8986V57.5103H103.041Z" fill="#B3DFEC"/>
<rect x="130.585" y="56.4062" width="27.5434" height="27.596" fill="#F3CD8E"/>
<rect width="29.7469" height="3.31152" transform="matrix(1 0 0 -1 129.483 87.314)" fill="#F3CD8E"/>
<rect x="130.585" y="57.5103" width="27.5434" height="25.3883" fill="#9FD7E8"/>
<path d="M158.128 57.5103L130.585 82.8986V57.5103H158.128Z" fill="#B3DFEC"/>
<rect x="185.672" y="56.4062" width="27.5434" height="27.596" fill="#F3CD8E"/>
<rect width="29.7469" height="3.31152" transform="matrix(1 0 0 -1 184.57 87.314)" fill="#F3CD8E"/>
<rect x="185.672" y="57.5103" width="27.5434" height="25.3883" fill="#9FD7E8"/>
<path d="M213.215 57.5103L185.672 82.8986V57.5103H213.215Z" fill="#B3DFEC"/>
<rect x="240.759" y="56.4062" width="27.5435" height="27.596" fill="#F3CD8E"/>
<rect width="29.7469" height="3.31152" transform="matrix(1 0 0 -1 239.657 87.314)" fill="#F3CD8E"/>
<rect x="240.759" y="57.5103" width="27.5435" height="25.3883" fill="#9FD7E8"/>
<path d="M268.302 57.5103L240.759 82.8986V57.5103H268.302Z" fill="#B3DFEC"/>
<path fill-rule="evenodd" clip-rule="evenodd" d="M295.933 105.695C313.835 105.695 328.348 91.1547 328.348 73.2183C328.348 55.2819 313.835 40.7415 295.933 40.7415C278.031 40.7415 263.518 55.2819 263.518 73.2183C263.518 91.1547 278.031 105.695 295.933 105.695ZM297.382 70.7328C301.172 72.9251 306.018 71.6241 308.206 67.827C310.394 64.03 309.095 59.1747 305.305 56.9825C301.516 54.7902 296.67 56.0912 294.482 59.8883C292.293 63.6853 293.592 68.5406 297.382 70.7328Z" fill="#FAE961"/>
<path fill-rule="evenodd" clip-rule="evenodd" d="M268.27 86.9263L298.214 104.247L289.537 119.304L273.792 123.531L275.902 131.418L268.03 133.531L270.139 141.418L262.267 143.532L264.113 150.433L257.269 162.308L242.6 166.246L232.938 160.657L230.669 152.177L268.27 86.9263Z" fill="#FAE961"/>
<rect width="5.76541" height="51.9382" transform="matrix(0.865612 0.500715 -0.499285 0.866438 266.582 101.196)" fill="#F3CD8E"/>
<path d="M269.463 96.1968L271.573 104.084L266.582 101.197L269.463 96.1968Z" fill="#F3CD8E"/>
<path d="M242.759 154.085L240.65 146.198L245.641 149.085L242.759 154.085Z" fill="#F3CD8E"/>
</svg>
