<svg width="22" height="22" viewBox="0 0 22 22" fill="none" xmlns="http://www.w3.org/2000/svg">
<path d="M15.7227 13.0601C15.4672 12.9289 14.1945 12.3055 13.9578 12.2211C13.7211 12.132 13.5477 12.0898 13.3766 12.3523C13.2031 12.6125 12.7109 13.1914 12.5562 13.3672C12.4062 13.5406 12.2539 13.5617 11.9984 13.4328C10.4797 12.6734 9.48359 12.0781 8.48281 10.3601C8.21797 9.90311 8.74766 9.93592 9.24219 8.94921C9.32656 8.77577 9.28438 8.62811 9.21875 8.49686C9.15312 8.36561 8.6375 7.0953 8.42188 6.57733C8.21328 6.07342 7.99766 6.14373 7.84063 6.13436C7.69063 6.12498 7.51953 6.12498 7.34609 6.12498C7.17266 6.12498 6.89375 6.19061 6.65703 6.44608C6.42031 6.70624 5.75234 7.33202 5.75234 8.60233C5.75234 9.87264 6.67812 11.1031 6.80469 11.2766C6.93594 11.45 8.62578 14.0562 11.2203 15.1789C12.8609 15.8867 13.5031 15.9476 14.3234 15.8258C14.8227 15.7508 15.8516 15.2023 16.0648 14.5953C16.2781 13.9906 16.2781 13.4726 16.2148 13.3648C16.1516 13.25 15.9781 13.1844 15.7227 13.0601Z" fill="white"/>
<path d="M20.6851 6.93123C20.1554 5.67264 19.3961 4.54295 18.4281 3.57264C17.4601 2.60467 16.3304 1.84295 15.0695 1.31561C13.7804 0.774204 12.4117 0.499985 11.0007 0.499985H10.9539C9.53356 0.507016 8.15777 0.788266 6.86402 1.34139C5.61481 1.87577 4.49449 2.63514 3.5359 3.60311C2.57731 4.57108 1.82496 5.69608 1.30465 6.94999C0.765587 8.24842 0.493712 9.62889 0.500743 11.0492C0.507775 12.6758 0.896837 14.2906 1.62574 15.7344V19.2969C1.62574 19.8922 2.10856 20.375 2.70387 20.375H6.26871C7.71246 21.1039 9.32731 21.493 10.9539 21.5H11.0031C12.407 21.5 13.7687 21.2281 15.0507 20.6961C16.3046 20.1734 17.432 19.4234 18.3976 18.4648C19.3656 17.5062 20.1273 16.3859 20.6593 15.1367C21.2125 13.843 21.4937 12.4672 21.5007 11.0469C21.5078 9.61952 21.2312 8.23436 20.6851 6.93123ZM17.1437 17.1969C15.5007 18.8234 13.3211 19.7187 11.0007 19.7187H10.9609C9.54762 19.7117 8.14371 19.3601 6.90387 18.6992L6.70699 18.5937H3.40699V15.2937L3.30152 15.0969C2.64059 13.857 2.28902 12.4531 2.28199 11.0398C2.27262 8.70311 3.16559 6.50936 4.80387 4.85702C6.43981 3.20467 8.62652 2.29061 10.9632 2.28123H11.0031C12.175 2.28123 13.3117 2.50858 14.3828 2.95858C15.4281 3.39686 16.3656 4.02733 17.1718 4.83358C17.9757 5.63748 18.6086 6.57733 19.0468 7.62264C19.5015 8.70545 19.7289 9.85389 19.7242 11.0398C19.7101 13.3742 18.7937 15.5609 17.1437 17.1969Z" fill="white"/>
</svg>
