<svg width="29" height="29" viewBox="0 0 29 29" fill="none" xmlns="http://www.w3.org/2000/svg">
<path d="M15.4094 8.55393L7.15709 19.1195C7.13536 19.1471 7.12185 19.1803 7.11812 19.2153C7.11439 19.2502 7.12059 19.2855 7.13601 19.3171C7.15143 19.3486 7.17544 19.3752 7.20529 19.3938C7.23514 19.4123 7.26961 19.422 7.30475 19.4219H9.11647C9.23131 19.4219 9.34147 19.368 9.41178 19.2789L16.0001 10.8414L22.5883 19.2789C22.6587 19.3703 22.7688 19.4219 22.8837 19.4219L24.6954 19.4219C24.8524 19.4219 24.9391 19.2414 24.843 19.1195L16.5907 8.55393C16.5206 8.46413 16.431 8.39149 16.3287 8.34152C16.2263 8.29155 16.114 8.26558 16.0001 8.26558C15.8862 8.26558 15.7738 8.29155 15.6714 8.34152C15.5691 8.39149 15.4795 8.46413 15.4094 8.55393Z" fill="#262626"/>
</svg>
