<svg width="24" height="29" viewBox="0 0 24 29" fill="none" xmlns="http://www.w3.org/2000/svg">
<path d="M17.9459 15.4096L7.38035 7.15721C7.35274 7.13548 7.31956 7.12197 7.28462 7.11824C7.24968 7.11451 7.2144 7.12072 7.18283 7.13613C7.15125 7.15155 7.12467 7.17557 7.10613 7.20541C7.08759 7.23526 7.07784 7.26973 7.07801 7.30487V9.11659C7.07801 9.23143 7.13191 9.34159 7.22097 9.4119L15.6585 16.0002L7.22097 22.5885C7.12957 22.6588 7.07801 22.7689 7.07801 22.8838V24.6955C7.07801 24.8525 7.25847 24.9392 7.38035 24.8432L17.9459 16.5908C18.0357 16.5208 18.1084 16.4312 18.1584 16.3288C18.2083 16.2265 18.2343 16.1141 18.2343 16.0002C18.2343 15.8863 18.2083 15.7739 18.1584 15.6716C18.1084 15.5692 18.0357 15.4796 17.9459 15.4096Z" fill="#262626"/>
</svg>
