<svg width="55" height="55" viewBox="0 0 55 55" fill="none" xmlns="http://www.w3.org/2000/svg">
<path fill-rule="evenodd" clip-rule="evenodd" d="M8.05176 8.05494L15.144 15.1492C18.3037 11.9884 22.669 10.0332 27.4904 10.0332C37.1338 10.0332 44.951 17.8532 44.951 27.5H54.9806C54.9806 12.3123 42.6727 0 27.4904 0C19.899 0 13.0266 3.07834 8.05176 8.05494Z" fill="#EF806F"/>
<path fill-rule="evenodd" clip-rule="evenodd" d="M15.1438 15.1492L8.05156 8.05493C3.07723 13.0315 0 19.9064 0 27.5C0 42.6877 12.3079 55 27.4897 55L27.4902 44.9668C17.8473 44.9668 10.0296 37.1468 10.0296 27.5C10.0296 22.6768 11.9842 18.31 15.1438 15.1492V15.1492Z" fill="#9FD7E8"/>
<path fill-rule="evenodd" clip-rule="evenodd" d="M44.9509 27.5C44.9509 37.1468 37.1336 44.9668 27.4902 44.9668V55C42.6725 55 54.9804 42.6877 54.9804 27.5H44.9509Z" fill="#FAE961"/>
</svg>
