<svg width="340" height="253" viewBox="0 0 340 253" fill="none" xmlns="http://www.w3.org/2000/svg">
<ellipse cx="178.752" cy="151.143" rx="63.9743" ry="20.5357" fill="#262626"/>
<rect x="114.777" y="73.356" width="127.949" height="78.4091" fill="#262626"/>
<path d="M179.373 21.0833L291.173 67.133H67.5732L179.373 21.0833Z" fill="#363636"/>
<path d="M179.373 113.183L67.5734 67.1331L291.173 67.1331L179.373 113.183Z" fill="#363636"/>
<rect x="47.6978" y="120.65" width="156.52" height="99.5671" fill="#FAE961"/>
<ellipse cx="125.957" cy="212.756" rx="11.7079" ry="11.7303" fill="#FAE961"/>
<ellipse cx="125.957" cy="212.756" rx="7.26698" ry="7.28085" fill="#F3CD8E"/>
<rect x="49.2505" y="122.15" width="153.414" height="94.651" fill="white"/>
<rect x="124.746" y="122.15" width="2.42233" height="94.651" fill="#EAEAF0"/>
<rect x="171.534" y="132.237" width="22.602" height="2.10336" fill="#EAEAF0"/>
<rect x="143.149" y="132.237" width="22.6021" height="2.10336" fill="#EAEAF0"/>
<rect x="171.534" y="138.547" width="22.602" height="2.10335" fill="#EAEAF0"/>
<rect x="143.149" y="138.547" width="22.6021" height="2.10335" fill="#EAEAF0"/>
<rect x="143.149" y="157.477" width="22.6021" height="2.10335" fill="#EAEAF0"/>
<rect x="171.534" y="163.787" width="22.602" height="2.10336" fill="#EAEAF0"/>
<rect x="143.149" y="144.857" width="22.6021" height="2.10335" fill="#EAEAF0"/>
<rect x="171.534" y="144.857" width="22.602" height="2.10335" fill="#EAEAF0"/>
<rect x="143.149" y="163.787" width="22.6021" height="2.10336" fill="#EAEAF0"/>
<rect x="171.534" y="170.097" width="22.602" height="2.10335" fill="#EAEAF0"/>
<rect x="143.149" y="182.717" width="22.6021" height="2.10336" fill="#EAEAF0"/>
<rect x="171.534" y="182.717" width="22.602" height="2.10336" fill="#EAEAF0"/>
<rect x="143.149" y="170.097" width="22.6021" height="2.10335" fill="#EAEAF0"/>
<rect x="171.563" y="157.477" width="22.6021" height="2.10335" fill="#EAEAF0"/>
<rect x="143.149" y="189.027" width="22.6021" height="2.10336" fill="#EAEAF0"/>
<rect x="143.149" y="195.338" width="22.6021" height="2.10334" fill="#EAEAF0"/>
<rect x="171.534" y="189.027" width="22.602" height="2.10336" fill="#EAEAF0"/>
<rect x="171.534" y="195.338" width="22.602" height="2.10334" fill="#EAEAF0"/>
<rect x="85.9443" y="132.237" width="22.602" height="2.10336" fill="#EAEAF0"/>
<rect x="57.5601" y="132.237" width="29.6148" height="2.10336" fill="#EAEAF0"/>
<rect x="85.9443" y="138.547" width="22.602" height="2.10335" fill="#EAEAF0"/>
<rect x="57.5601" y="138.547" width="29.6148" height="2.10336" fill="#EAEAF0"/>
<rect x="57.5601" y="157.477" width="29.6148" height="2.10335" fill="#EAEAF0"/>
<rect x="85.9443" y="163.787" width="22.602" height="2.10336" fill="#EAEAF0"/>
<rect x="57.5601" y="144.857" width="22.6021" height="2.10335" fill="#EAEAF0"/>
<rect x="57.5601" y="163.787" width="29.6148" height="2.10336" fill="#EAEAF0"/>
<rect x="85.9443" y="170.097" width="22.602" height="2.10335" fill="#EAEAF0"/>
<rect x="57.5601" y="182.717" width="29.6148" height="2.10336" fill="#EAEAF0"/>
<rect x="85.9443" y="182.717" width="22.602" height="2.10336" fill="#EAEAF0"/>
<rect x="57.5601" y="170.097" width="29.6148" height="2.10336" fill="#EAEAF0"/>
<rect x="85.9736" y="157.477" width="22.6021" height="2.10335" fill="#EAEAF0"/>
<rect x="57.5601" y="189.028" width="29.6148" height="2.10336" fill="#EAEAF0"/>
<rect x="57.5601" y="195.338" width="22.6021" height="2.10334" fill="#EAEAF0"/>
<rect x="85.9443" y="189.027" width="22.602" height="2.10336" fill="#EAEAF0"/>
<rect x="134.436" y="122.15" width="6.45953" height="22.247" fill="#EF806F"/>
<path d="M137.666 144.398L140.896 141.162V147.634L137.666 144.398Z" fill="#EF806F"/>
<path d="M137.666 144.398L134.436 147.633V141.162L137.666 144.398Z" fill="#EF806F"/>
<rect x="259.374" y="223.951" width="7.96538" height="81.4486" transform="rotate(90 259.374 223.951)" fill="#9FD7E8"/>
<rect x="259.374" y="226.075" width="3.71718" height="81.4486" transform="rotate(90 259.374 226.075)" fill="#EF806F"/>
<rect width="7.96538" height="8.19608" rx="3" transform="matrix(0 1 1 0 259.374 223.951)" fill="#EF806F"/>
<rect width="7.96538" height="4.09804" transform="matrix(0 1 1 0 259.374 223.951)" fill="#F3CD8E"/>
<path d="M168.193 227.934L177.926 223.951V231.917L168.193 227.934Z" fill="#F2CB86"/>
<path d="M179.462 230.589L177.926 231.917V229.261L179.462 230.589Z" fill="#F2CB86"/>
<path d="M179.462 227.934L177.926 229.261V226.606L179.462 227.934Z" fill="#F2CB86"/>
<path d="M179.462 225.279L177.926 226.606V223.951L179.462 225.279Z" fill="#F2CB86"/>
<path d="M168.193 227.934L172.291 226.258V229.614L168.193 227.934Z" fill="#262626"/>
</svg>
