<svg width="16" height="16" viewBox="0 0 16 16" fill="none" xmlns="http://www.w3.org/2000/svg">
<g clip-path="url(#clip0_316_1852)">
<path d="M0 16L1.376 11.8723C0.677793 10.6979 0.275862 9.32745 0.275862 7.86207C0.275862 3.52 3.79586 0 8.13793 0C12.48 0 16 3.52 16 7.86207C16 12.2041 12.48 15.7241 8.13793 15.7241C6.81683 15.7241 5.57269 15.3967 4.48 14.8212L0 16Z" fill="#262626"/>
<path d="M13.1541 10.4786C12.7911 9.79252 11.4523 9.00797 11.4523 9.00797C11.1494 8.83528 10.7839 8.81597 10.6112 9.12383C10.6112 9.12383 10.1762 9.64549 10.0655 9.72052C9.56016 10.0629 9.09203 10.0496 8.61947 9.57707L7.52127 8.47887L6.42306 7.38066C5.95051 6.90811 5.93727 6.43997 6.27961 5.93459C6.35465 5.82397 6.8763 5.38893 6.8763 5.38893C7.18416 5.21597 7.16485 4.85073 6.99216 4.54783C6.99216 4.54783 6.20761 3.20907 5.52154 2.84604C5.22968 2.69155 4.87133 2.74562 4.63795 2.979L4.15299 3.46397C2.61451 5.00245 3.37202 6.73928 4.91051 8.27776L6.31658 9.68383L7.72265 11.0899C9.26113 12.6284 10.998 13.3859 12.5364 11.8474L13.0214 11.3625C13.2548 11.1285 13.3086 10.7702 13.1541 10.4786Z" fill="white"/>
</g>
<defs>
<clipPath id="clip0_316_1852">
<rect width="16" height="16" fill="white"/>
</clipPath>
</defs>
</svg>
