<svg width="340" height="253" viewBox="0 0 340 253" fill="none" xmlns="http://www.w3.org/2000/svg">
<ellipse cx="271.316" cy="151.864" rx="23.9893" ry="23.9582" fill="#F3CD8E"/>
<ellipse cx="271.317" cy="151.864" rx="20.3909" ry="20.3645" fill="#FAED61"/>
<path fill-rule="evenodd" clip-rule="evenodd" d="M264.119 140.122H276.114V143.807C275.823 143.747 275.523 143.716 275.215 143.716C275.215 143.716 275.214 143.716 275.214 143.716H268.917V152.82H275.214C275.214 152.82 275.215 152.82 275.215 152.82C275.523 152.82 275.823 152.788 276.114 152.729V156.413H264.119V140.122Z" fill="#F3CD8E"/>
<path fill-rule="evenodd" clip-rule="evenodd" d="M284.51 148.267C284.51 152.766 280.751 156.413 276.114 156.413C273.214 156.413 270.658 154.988 269.15 152.82H275.215C275.215 152.82 275.215 152.82 275.215 152.82C277.699 152.82 279.713 150.782 279.713 148.268C279.713 145.754 277.699 143.716 275.215 143.716C275.215 143.716 275.215 143.716 275.215 143.716H269.149C270.658 141.547 273.214 140.122 276.114 140.122C280.751 140.122 284.51 143.769 284.51 148.267ZM268.918 144.067C268.156 145.294 267.717 146.731 267.717 148.267C267.717 149.804 268.156 151.241 268.918 152.467V144.067Z" fill="#F3CD8E"/>
<rect x="264.12" y="156.416" width="4.79791" height="7.66664" fill="#F3CD8E"/>
<rect x="260.761" y="158.333" width="15.3531" height="2.39581" fill="#F3CD8E"/>
<rect x="247.327" y="175.822" width="47.9786" height="7.9861" fill="#FAED61"/>
<rect x="247.327" y="175.822" width="5.33096" height="7.9861" fill="#F3CD8E"/>
<rect x="257.988" y="175.822" width="5.33093" height="7.9861" fill="#F3CD8E"/>
<rect x="268.651" y="175.822" width="5.33096" height="7.9861" fill="#F3CD8E"/>
<rect x="279.312" y="175.822" width="5.33093" height="7.9861" fill="#F3CD8E"/>
<rect x="289.975" y="175.822" width="5.33096" height="7.9861" fill="#F3CD8E"/>
<rect x="241.997" y="183.808" width="47.9786" height="7.98607" fill="#FAED61"/>
<rect x="241.997" y="183.808" width="5.33095" height="7.98607" fill="#F3CD8E"/>
<rect x="252.658" y="183.808" width="5.33099" height="7.98607" fill="#F3CD8E"/>
<rect x="263.321" y="183.808" width="5.33099" height="7.98607" fill="#F3CD8E"/>
<rect x="273.982" y="183.808" width="5.33096" height="7.98607" fill="#F3CD8E"/>
<rect x="284.645" y="183.808" width="5.33093" height="7.98607" fill="#F3CD8E"/>
<rect x="247.327" y="191.793" width="47.9786" height="7.98608" fill="#FAED61"/>
<rect x="247.327" y="191.793" width="5.33096" height="7.98608" fill="#F3CD8E"/>
<rect x="257.988" y="191.793" width="5.33093" height="7.98608" fill="#F3CD8E"/>
<rect x="268.651" y="191.793" width="5.33096" height="7.98608" fill="#F3CD8E"/>
<rect x="279.312" y="191.793" width="5.33093" height="7.98608" fill="#F3CD8E"/>
<rect x="289.975" y="191.793" width="5.33096" height="7.98608" fill="#F3CD8E"/>
<rect x="241.997" y="199.778" width="47.9786" height="7.9861" fill="#FAED61"/>
<rect x="241.997" y="199.778" width="5.33095" height="7.9861" fill="#F3CD8E"/>
<rect x="252.658" y="199.778" width="5.33099" height="7.9861" fill="#F3CD8E"/>
<rect x="263.321" y="199.778" width="5.33099" height="7.9861" fill="#F3CD8E"/>
<rect x="273.982" y="199.778" width="5.33096" height="7.9861" fill="#F3CD8E"/>
<rect x="284.645" y="199.778" width="5.33093" height="7.9861" fill="#F3CD8E"/>
<rect x="247.327" y="207.768" width="47.9786" height="7.9861" fill="#FAED61"/>
<rect x="247.327" y="207.768" width="5.33096" height="7.9861" fill="#F3CD8E"/>
<rect x="257.988" y="207.768" width="5.33093" height="7.9861" fill="#F3CD8E"/>
<rect x="268.651" y="207.768" width="5.33096" height="7.9861" fill="#F3CD8E"/>
<rect x="279.312" y="207.768" width="5.33093" height="7.9861" fill="#F3CD8E"/>
<rect x="289.975" y="207.768" width="5.33096" height="7.9861" fill="#F3CD8E"/>
<rect x="84.874" y="24.9717" width="157.122" height="218.19" fill="#262626"/>
<rect x="95.5264" y="35.6147" width="135.818" height="191.581" fill="white"/>
<rect x="137.071" y="21.7783" width="53.2619" height="17.0295" fill="#FAED61"/>
<path fill-rule="evenodd" clip-rule="evenodd" d="M163.435 26.0358C169.465 26.0358 174.354 21.1514 174.354 15.1263C174.354 9.10114 169.465 4.2168 163.435 4.2168C157.405 4.2168 152.517 9.10114 152.517 15.1263C152.517 21.1514 157.405 26.0358 163.435 26.0358ZM163.435 21.7784C167.112 21.7784 170.093 18.8002 170.093 15.1263C170.093 11.4524 167.112 8.47416 163.435 8.47416C159.758 8.47416 156.778 11.4524 156.778 15.1263C156.778 18.8002 159.758 21.7784 163.435 21.7784Z" fill="#FAED61"/>
<rect x="112.038" y="134.066" width="10.6524" height="18.0938" fill="#05D197"/>
<rect x="204.181" y="118.633" width="10.6524" height="33.5267" fill="#05D197"/>
<rect x="158.375" y="124.487" width="10.6524" height="27.6729" fill="#05D197"/>
<rect x="181.278" y="112.779" width="10.6524" height="39.3806" fill="#05D197"/>
<rect x="135.473" y="118.633" width="10.6524" height="33.5267" fill="#05D197"/>
<rect x="112.038" y="64.3521" width="70.3056" height="4.25737" fill="#EAEAF0"/>
<rect x="112.038" y="170.786" width="70.3056" height="4.25737" fill="#EAEAF0"/>
<rect x="112.038" y="77.124" width="102.795" height="4.25736" fill="#EAEAF0"/>
<rect x="112.038" y="183.558" width="102.795" height="4.25735" fill="#EAEAF0"/>
<rect x="112.038" y="89.896" width="102.795" height="4.25737" fill="#EAEAF0"/>
<rect x="112.038" y="196.33" width="102.795" height="4.25739" fill="#EAEAF0"/>
</svg>
