<svg width="740" height="602" viewBox="0 0 740 602" fill="none" xmlns="http://www.w3.org/2000/svg">
<rect width="241.456" height="340.909" transform="matrix(0.965871 -0.258856 0.258782 0.965981 77.8311 145.303)" fill="#F8F8FA"/>
<rect width="81.4323" height="7.57576" transform="matrix(0.965871 -0.258856 0.258782 0.965981 213.354 146.239)" fill="#EAEAF0"/>
<rect width="81.4323" height="7.57576" transform="matrix(0.965871 -0.258856 0.258782 0.965981 114.58 172.71)" fill="#EAEAF0"/>
<rect width="81.4323" height="7.57576" transform="matrix(0.965871 -0.258856 0.258782 0.965981 219.236 168.193)" fill="#EAEAF0"/>
<rect width="81.4323" height="7.57576" transform="matrix(0.965871 -0.258856 0.258782 0.965981 120.462 194.665)" fill="#EAEAF0"/>
<rect width="81.4323" height="7.57577" transform="matrix(0.965871 -0.258856 0.258782 0.965981 138.106 260.527)" fill="#EAEAF0"/>
<rect width="81.4323" height="7.57575" transform="matrix(0.965871 -0.258856 0.258782 0.965981 126.343 216.619)" fill="#EAEAF0"/>
<rect width="81.4323" height="7.57575" transform="matrix(0.965871 -0.258856 0.258782 0.965981 225.117 190.147)" fill="#EAEAF0"/>
<rect width="81.4323" height="7.57577" transform="matrix(0.965871 -0.258856 0.258782 0.965981 236.88 234.055)" fill="#EAEAF0"/>
<rect width="81.4323" height="7.57576" transform="matrix(0.965871 -0.258856 0.258782 0.965981 242.761 256.009)" fill="#EAEAF0"/>
<rect width="81.4323" height="7.57576" transform="matrix(0.965871 -0.258856 0.258782 0.965981 248.643 277.963)" fill="#EAEAF0"/>
<rect width="81.4323" height="7.57576" transform="matrix(0.965871 -0.258856 0.258782 0.965981 143.987 282.481)" fill="#EAEAF0"/>
<rect width="81.4323" height="7.57576" transform="matrix(0.965871 -0.258856 0.258782 0.965981 161.632 348.343)" fill="#EAEAF0"/>
<rect width="81.4323" height="7.57576" transform="matrix(0.965871 -0.258856 0.258782 0.965981 260.405 321.872)" fill="#EAEAF0"/>
<rect width="81.4323" height="7.57576" transform="matrix(0.965871 -0.258856 0.258782 0.965981 149.869 304.435)" fill="#EAEAF0"/>
<rect width="81.4323" height="7.57576" transform="matrix(0.965871 -0.258856 0.258782 0.965981 167.513 370.297)" fill="#EAEAF0"/>
<rect width="81.4323" height="7.57574" transform="matrix(0.965871 -0.258856 0.258782 0.965981 173.395 392.251)" fill="#EAEAF0"/>
<rect width="81.4323" height="7.57576" transform="matrix(0.965871 -0.258856 0.258782 0.965981 266.287 343.826)" fill="#EAEAF0"/>
<rect width="81.4323" height="7.57574" transform="matrix(0.965871 -0.258856 0.258782 0.965981 272.168 365.78)" fill="#EAEAF0"/>
<rect width="279.32" height="388.275" transform="matrix(0.965913 0.258868 -0.258771 0.965939 309.071 89.8442)" fill="#262626"/>
<rect width="241.446" height="340.924" transform="matrix(0.965913 0.258868 -0.258771 0.965939 322.462 113.042)" fill="white"/>
<rect width="94.6846" height="30.3044" transform="matrix(0.965913 0.258868 -0.258771 0.965939 400.17 108.376)" fill="#FAED61"/>
<path fill-rule="evenodd" clip-rule="evenodd" d="M443.48 127.828C453.835 130.603 464.478 124.456 467.253 114.1C470.027 103.743 463.882 93.0976 453.528 90.3226C443.173 87.5475 432.53 93.6936 429.755 104.05C426.981 114.407 433.126 125.052 443.48 127.828ZM445.441 120.509C451.755 122.202 458.244 118.454 459.936 112.139C461.628 105.824 457.881 99.3327 451.567 97.6406C445.254 95.9485 438.764 99.6961 437.072 106.011C435.38 112.326 439.127 118.817 445.441 120.509Z" fill="#FAED61"/>
<rect width="56.8108" height="56.8206" rx="28.4054" transform="matrix(0.965913 0.258868 -0.258771 0.965939 314.054 257.853)" fill="#05D197"/>
<rect width="30.3017" height="7.57543" transform="matrix(0.865938 -0.50005 0.49995 0.866112 325.344 301.018)" fill="white"/>
<rect width="7.57543" height="22.7263" transform="matrix(0.865938 -0.50005 0.49995 0.866112 317.769 287.896)" fill="white"/>
<rect width="56.8108" height="56.8207" rx="28.4054" transform="matrix(0.965913 0.258868 -0.258771 0.965939 338.56 166.378)" fill="#05D197"/>
<rect width="30.3017" height="7.57543" transform="matrix(0.865938 -0.50005 0.49995 0.866112 349.849 209.543)" fill="white"/>
<rect width="7.57543" height="22.7263" transform="matrix(0.865938 -0.50005 0.49995 0.866112 342.275 196.42)" fill="white"/>
<rect width="56.8108" height="56.8206" rx="28.4054" transform="matrix(0.965913 0.258868 -0.258771 0.965939 289.549 349.329)" fill="#05D197"/>
<rect width="30.3017" height="7.57543" transform="matrix(0.865938 -0.50005 0.49995 0.866112 300.838 392.494)" fill="white"/>
<rect width="7.57543" height="22.7263" transform="matrix(0.865938 -0.50005 0.49995 0.866112 293.263 379.371)" fill="white"/>
<rect width="69.1198" height="7.5761" transform="matrix(0.965913 0.258868 -0.258771 0.965939 391.727 282.591)" fill="#EAEAF0"/>
<rect width="69.1198" height="7.5761" transform="matrix(0.965913 0.258868 -0.258771 0.965939 416.233 191.116)" fill="#EAEAF0"/>
<rect width="69.1198" height="7.57611" transform="matrix(0.965913 0.258868 -0.258771 0.965939 367.221 374.067)" fill="#EAEAF0"/>
<rect width="101.313" height="7.57607" transform="matrix(0.965913 0.258868 -0.258771 0.965939 385.846 304.545)" fill="#EAEAF0"/>
<rect width="101.313" height="7.57608" transform="matrix(0.965913 0.258868 -0.258771 0.965939 410.352 213.07)" fill="#EAEAF0"/>
<rect width="101.313" height="7.57608" transform="matrix(0.965913 0.258868 -0.258771 0.965939 361.34 396.021)" fill="#EAEAF0"/>
<rect width="101.313" height="7.5761" transform="matrix(0.965913 0.258868 -0.258771 0.965939 379.965 326.5)" fill="#EAEAF0"/>
<rect width="101.313" height="7.5761" transform="matrix(0.965913 0.258868 -0.258771 0.965939 404.47 235.024)" fill="#EAEAF0"/>
<rect width="101.313" height="7.57608" transform="matrix(0.965913 0.258868 -0.258771 0.965939 355.459 417.975)" fill="#EAEAF0"/>
<path d="M565.251 251.332L678.871 251.332L678.871 395.28L565.251 395.28L565.251 251.332Z" fill="#262626"/>
<path d="M576.613 262.696L667.509 262.696L667.509 285.425L576.613 285.425L576.613 262.696Z" fill="#9FD7E8"/>
<mask id="mask0_313_6671" style="mask-type:alpha" maskUnits="userSpaceOnUse" x="576" y="262" width="92" height="24">
<path d="M576.613 262.696L667.509 262.696L667.509 285.425L576.613 285.425L576.613 262.696Z" fill="#9FD7E8"/>
</mask>
<g mask="url(#mask0_313_6671)">
<path d="M631.132 291.056L652.909 253.329L642.891 247.544L621.114 285.271L631.132 291.056Z" fill="#B3DFEC"/>
<path d="M641.614 297.109L663.391 259.383L656.831 255.595L635.054 293.321L641.614 297.109Z" fill="#B3DFEC"/>
</g>
<path d="M576.613 294.895L593.656 294.895L593.656 311.941L576.613 311.941L576.613 294.895Z" fill="#EAEAF0"/>
<path d="M576.613 319.518L593.656 319.518L593.656 336.564L576.613 336.564L576.613 319.518Z" fill="#EAEAF0"/>
<path d="M576.613 344.14L593.656 344.14L593.656 361.187L576.613 361.187L576.613 344.14Z" fill="#EAEAF0"/>
<path d="M576.613 368.763L593.656 368.763L593.656 385.81L576.613 385.81L576.613 368.763Z" fill="#EAEAF0"/>
<path d="M650.466 294.895L667.509 294.895L667.509 311.941L650.466 311.941L650.466 294.895Z" fill="#FAED61"/>
<path d="M650.466 319.518L667.509 319.518L667.509 336.564L650.466 336.564L650.466 319.518Z" fill="#9FD7E8"/>
<path d="M650.466 344.14L667.509 344.14L667.509 385.809L650.466 385.809L650.466 344.14Z" fill="#EF806F"/>
<path d="M625.848 294.895L642.891 294.895L642.891 311.941L625.848 311.941L625.848 294.895Z" fill="#EAEAF0"/>
<path d="M625.848 319.518L642.891 319.518L642.891 336.564L625.848 336.564L625.848 319.518Z" fill="#EAEAF0"/>
<path d="M625.848 344.14L642.891 344.14L642.891 361.187L625.848 361.187L625.848 344.14Z" fill="#EAEAF0"/>
<path d="M625.848 368.763L642.891 368.763L642.891 385.81L625.848 385.81L625.848 368.763Z" fill="#EAEAF0"/>
<path d="M601.231 294.895L618.274 294.895L618.274 311.941L601.231 311.941L601.231 294.895Z" fill="#EAEAF0"/>
<path d="M601.231 319.518L618.274 319.518L618.274 336.564L601.231 336.564L601.231 319.518Z" fill="#EAEAF0"/>
<path d="M601.231 344.14L618.274 344.14L618.274 361.187L601.231 361.187L601.231 344.14Z" fill="#EAEAF0"/>
<path d="M601.231 368.763L618.274 368.763L618.274 385.81L601.231 385.81L601.231 368.763Z" fill="#EAEAF0"/>
<rect width="14.203" height="150.572" transform="matrix(0.819124 0.573672 -0.573481 0.81918 584.477 422.522)" fill="#9FD7E8"/>
<rect width="6.62806" height="150.572" transform="matrix(0.819124 0.573672 -0.573481 0.81918 587.58 424.695)" fill="#EF806F"/>
<rect width="14.203" height="15.1519" rx="3" transform="matrix(0.819124 0.573672 0.573481 -0.81918 584.477 422.522)" fill="#EF806F"/>
<rect width="14.203" height="7.57593" transform="matrix(0.819124 0.573672 0.573481 -0.81918 584.477 422.522)" fill="#F3CD8E"/>
<path d="M493.626 564.68L498.127 545.867L509.761 554.015L493.626 564.68Z" fill="#F2CB86"/>
<path d="M509.451 550.33L509.761 554.015L505.883 551.299L509.451 550.33Z" fill="#F2CB86"/>
<path d="M505.574 547.614L505.883 551.299L502.005 548.583L505.574 547.614Z" fill="#F2CB86"/>
<path d="M501.695 544.898L502.005 548.583L498.127 545.867L501.695 544.898Z" fill="#F2CB86"/>
<path d="M493.626 564.681L495.522 556.76L500.424 560.193L493.626 564.681Z" fill="#262626"/>
</svg>
