<svg width="320" height="282" viewBox="0 0 320 282" fill="none" xmlns="http://www.w3.org/2000/svg">
<ellipse cx="35.1409" cy="170.808" rx="23.3849" ry="23.375" fill="#F3CD8E"/>
<ellipse cx="35.1409" cy="170.808" rx="19.8772" ry="19.8687" fill="#FAED61"/>
<path fill-rule="evenodd" clip-rule="evenodd" d="M28.125 159.354H39.8174V162.95C39.534 162.892 39.2407 162.861 38.9403 162.861H32.8018V171.744H38.9403C39.2407 171.744 39.534 171.713 39.8174 171.655V175.249H28.125V159.354Z" fill="#F3CD8E"/>
<path fill-rule="evenodd" clip-rule="evenodd" d="M48.0021 167.301C48.0021 171.691 44.3377 175.249 39.8174 175.249C36.9917 175.249 34.5004 173.858 33.0296 171.744H38.9403C41.3619 171.744 43.325 169.755 43.325 167.302C43.325 164.849 41.3619 162.861 38.9403 162.861H33.0282C34.4988 160.745 36.9908 159.354 39.8174 159.354C44.3377 159.354 48.0021 162.912 48.0021 167.301ZM32.8018 163.206C32.0596 164.402 31.6327 165.803 31.6327 167.301C31.6327 168.799 32.0596 170.201 32.8018 171.397V163.206Z" fill="#F3CD8E"/>
<rect x="28.1251" y="175.25" width="4.67698" height="7.48001" fill="#F3CD8E"/>
<rect x="24.8513" y="177.12" width="14.9663" height="2.33749" fill="#F3CD8E"/>
<rect width="163.69" height="225.186" transform="matrix(0.965953 0.258717 -0.258921 0.965898 153.002 15.2092)" fill="#F8F8FA"/>
<rect width="55.2051" height="5.00412" transform="matrix(0.965953 0.258717 -0.258921 0.965898 232.417 61.0867)" fill="#EAEAF0"/>
<rect width="55.2052" height="5.00412" transform="matrix(0.965953 0.258717 -0.258921 0.965898 165.45 43.1504)" fill="#EAEAF0"/>
<rect width="55.2051" height="5.00412" transform="matrix(0.965953 0.258717 -0.258921 0.965898 228.53 75.5869)" fill="#EAEAF0"/>
<rect width="55.2052" height="5.00412" transform="matrix(0.965953 0.258717 -0.258921 0.965898 161.563 57.6509)" fill="#EAEAF0"/>
<rect width="55.2052" height="5.00412" transform="matrix(0.965953 0.258717 -0.258921 0.965898 149.902 101.152)" fill="#EAEAF0"/>
<rect width="55.2052" height="5.00412" transform="matrix(0.965953 0.258717 -0.258921 0.965898 157.676 72.1514)" fill="#EAEAF0"/>
<rect width="55.2051" height="5.00412" transform="matrix(0.965953 0.258717 -0.258921 0.965898 224.643 90.0874)" fill="#EAEAF0"/>
<rect width="55.2051" height="5.00412" transform="matrix(0.965953 0.258717 -0.258921 0.965898 216.869 119.088)" fill="#EAEAF0"/>
<rect width="55.2051" height="5.00413" transform="matrix(0.965953 0.258717 -0.258921 0.965898 212.982 133.589)" fill="#EAEAF0"/>
<rect width="55.2051" height="5.00412" transform="matrix(0.965953 0.258717 -0.258921 0.965898 209.095 148.089)" fill="#EAEAF0"/>
<rect width="55.2052" height="5.00413" transform="matrix(0.965953 0.258717 -0.258921 0.965898 146.015 115.653)" fill="#EAEAF0"/>
<rect width="55.2052" height="5.00412" transform="matrix(0.965953 0.258717 -0.258921 0.965898 134.354 159.154)" fill="#EAEAF0"/>
<rect width="55.2051" height="5.00412" transform="matrix(0.965953 0.258717 -0.258921 0.965898 201.321 177.09)" fill="#EAEAF0"/>
<rect width="55.2052" height="5.00412" transform="matrix(0.965953 0.258717 -0.258921 0.965898 142.128 130.153)" fill="#EAEAF0"/>
<rect width="55.2052" height="5.00412" transform="matrix(0.965953 0.258717 -0.258921 0.965898 130.466 173.654)" fill="#EAEAF0"/>
<rect width="55.2052" height="5.00412" transform="matrix(0.965953 0.258717 -0.258921 0.965898 126.579 188.155)" fill="#EAEAF0"/>
<rect width="55.2051" height="5.00412" transform="matrix(0.965953 0.258717 -0.258921 0.965898 197.434 191.59)" fill="#EAEAF0"/>
<rect width="55.2051" height="5.00412" transform="matrix(0.965953 0.258717 -0.258921 0.965898 193.547 206.091)" fill="#EAEAF0"/>
<rect x="49.9514" y="25.3142" width="189.418" height="256.136" fill="#262626"/>
<rect x="62.7933" y="37.8081" width="163.734" height="224.9" fill="white"/>
<rect x="113.091" y="21.5659" width="64.2094" height="19.9911" fill="#FAED61"/>
<path fill-rule="evenodd" clip-rule="evenodd" d="M144.874 26.5635C152.144 26.5635 158.037 20.8297 158.037 13.7567C158.037 6.68375 152.144 0.949951 144.874 0.949951C137.605 0.949951 131.711 6.68375 131.711 13.7567C131.711 20.8297 137.605 26.5635 144.874 26.5635ZM144.874 21.5658C149.307 21.5658 152.9 18.0695 152.9 13.7567C152.9 9.44394 149.307 5.94772 144.874 5.94772C140.442 5.94772 136.848 9.44394 136.848 13.7567C136.848 18.0695 140.442 21.5658 144.874 21.5658Z" fill="#FAED61"/>
<rect x="79.1365" y="133.936" width="89.2724" height="5.02888" fill="#EAEAF0"/>
<rect x="113.091" y="71.3542" width="64.093" height="5.02887" fill="#6C92C4"/>
<rect x="79.1365" y="184.225" width="46.8729" height="4.99774" fill="#EAEAF0"/>
<rect x="79.1365" y="149.023" width="131.047" height="5.02892" fill="#EAEAF0"/>
<rect x="79.1365" y="86.4407" width="131.047" height="5.02888" fill="#EAEAF0"/>
<rect x="79.1365" y="199.218" width="68.7041" height="4.99779" fill="#EAEAF0"/>
<rect x="79.1365" y="164.109" width="131.047" height="5.02887" fill="#EAEAF0"/>
<rect x="79.1365" y="101.528" width="131.047" height="5.02888" fill="#EAEAF0"/>
<ellipse cx="188.312" cy="217.948" rx="32.3491" ry="32.3354" fill="#6C92C4"/>
<ellipse cx="188.312" cy="217.948" rx="30.7901" ry="30.7771" fill="white"/>
<ellipse cx="188.312" cy="217.948" rx="27.6721" ry="27.6604" fill="#6C92C4"/>
<ellipse cx="188.312" cy="217.948" rx="22.9951" ry="22.9854" fill="white"/>
<path fill-rule="evenodd" clip-rule="evenodd" d="M180.373 227.228L173.886 228.604L173.712 227.786C173.955 227.584 174.215 227.394 174.492 227.215C174.769 227.036 175.054 226.893 175.347 226.786L172.758 214.593C172.456 214.582 172.137 214.567 171.803 214.548C171.465 214.514 171.151 214.446 170.858 214.343L170.685 213.524L177.172 212.148L177.346 212.967C177.158 213.142 176.939 213.316 176.691 213.489C176.442 213.661 176.166 213.81 175.862 213.935L177.6 222.121L177.741 223.847L178.422 221.857L182.243 213.121L182.134 212.604C181.425 212.59 180.813 212.502 180.298 212.341L180.124 211.522L186.612 210.146L186.786 210.965C186.575 211.175 186.322 211.363 186.027 211.531C185.744 211.681 185.452 211.826 185.151 211.964L187.739 224.158C188.082 224.145 188.409 224.166 188.721 224.22C189.044 224.256 189.35 224.319 189.639 224.408L189.813 225.226L183.326 226.602L183.152 225.784C183.332 225.64 183.546 225.482 183.795 225.31C184.055 225.119 184.335 224.955 184.636 224.816L182.902 216.651L182.757 214.904L182.148 216.811L178.263 225.672L178.364 226.146C178.71 226.148 179.039 226.176 179.35 226.23C179.662 226.284 179.945 226.344 180.199 226.41L180.373 227.228V227.228ZM197.147 223.671L190.681 225.042L190.508 224.223C190.699 224.063 190.926 223.895 191.189 223.719C191.449 223.529 191.766 223.364 192.142 223.224L189.554 211.03C189.254 211.034 188.936 211.019 188.598 210.985C188.275 210.949 187.961 210.881 187.654 210.781L187.48 209.962L202.955 206.68L203.128 207.498C202.892 207.729 202.634 207.926 202.353 208.091C202.07 208.241 201.783 208.377 201.494 208.498L204.082 220.691C204.626 220.636 205.259 220.719 205.982 220.941L206.156 221.76L199.69 223.131L199.516 222.313C199.636 222.167 199.8 222.02 200.008 221.871C200.214 221.707 200.494 221.542 200.849 221.377L198.252 209.141L192.777 210.302L195.375 222.538C195.678 222.549 195.955 222.58 196.206 222.632C196.457 222.684 196.713 222.757 196.973 222.852L197.147 223.671V223.671Z" fill="#6C92C4"/>
<path d="M39.5173 220.714C39.8513 221.048 40.0406 221.499 40.0406 221.972V256.294C40.0406 257.279 39.2444 258.075 38.2589 258.075H2.62479C1.63928 258.075 0.843079 257.279 0.843079 256.294V209.989C0.843079 209.004 1.63928 208.208 2.62479 208.208H26.2714C26.7446 208.208 27.2012 208.397 27.5353 208.731L39.5173 220.714V220.714ZM35.9316 222.79L25.4529 212.316V222.79H35.9316ZM9.75161 231.472C9.63348 231.472 9.52018 231.519 9.43665 231.602C9.35311 231.686 9.30619 231.799 9.30619 231.917V234.589C9.30619 234.707 9.35311 234.82 9.43665 234.903C9.52018 234.987 9.63348 235.034 9.75161 235.034H31.1321C31.2502 235.034 31.3635 234.987 31.4471 234.903C31.5306 234.82 31.5775 234.707 31.5775 234.589V231.917C31.5775 231.799 31.5306 231.686 31.4471 231.602C31.3635 231.519 31.2502 231.472 31.1321 231.472H9.75161ZM9.75161 239.041C9.63348 239.041 9.52018 239.088 9.43665 239.171C9.35311 239.255 9.30619 239.368 9.30619 239.486V242.158C9.30619 242.276 9.35311 242.389 9.43665 242.473C9.52018 242.556 9.63348 242.603 9.75161 242.603H19.9964C20.1146 242.603 20.2279 242.556 20.3114 242.473C20.3949 242.389 20.4419 242.276 20.4419 242.158V239.486C20.4419 239.368 20.3949 239.255 20.3114 239.171C20.2279 239.088 20.1146 239.041 19.9964 239.041H9.75161Z" fill="#6C92C4"/>
</svg>
