<svg width="340" height="253" viewBox="0 0 340 253" fill="none" xmlns="http://www.w3.org/2000/svg">
<path d="M233.562 90.3018C230.972 84.298 227.236 78.8573 222.566 74.2845C217.891 69.698 212.38 66.0531 206.332 63.5482C200.06 60.9404 193.333 59.6056 186.542 59.6212C177.014 59.6212 167.718 62.2328 159.64 67.1656C157.707 68.3457 155.871 69.6418 154.132 71.0539C152.392 69.6418 150.556 68.3457 148.624 67.1656C140.545 62.2328 131.249 59.6212 121.722 59.6212C114.861 59.6212 108.213 60.9367 101.932 63.5482C95.8632 66.063 90.3939 69.6804 85.6977 74.2845C81.0207 78.8522 77.2846 84.2941 74.7011 90.3018C72.0147 96.5502 70.6426 103.185 70.6426 110.014C70.6426 116.456 71.9568 123.168 74.5658 129.997C76.7496 135.704 79.8805 141.623 83.881 147.601C90.22 157.06 98.9361 166.926 109.759 176.927C127.693 193.506 145.454 204.958 146.208 205.422L150.788 208.362C152.817 209.658 155.426 209.658 157.456 208.362L162.036 205.422C162.79 204.938 180.531 193.506 198.485 176.927C209.308 166.926 218.024 157.06 224.363 147.601C228.363 141.623 231.514 135.704 233.678 129.997C236.287 123.168 237.601 116.456 237.601 110.014C237.621 103.185 236.248 96.5502 233.562 90.3018Z" fill="#EF806F"/>
<mask id="mask0_313_5636" style="mask-type:alpha" maskUnits="userSpaceOnUse" x="70" y="59" width="168" height="151">
<path d="M233.562 90.3019C230.972 84.298 227.236 78.8573 222.565 74.2845C217.891 69.698 212.38 66.0531 206.332 63.5482C200.06 60.9404 193.333 59.6056 186.542 59.6212C177.014 59.6212 167.718 62.2328 159.64 67.1656C157.707 68.3457 155.871 69.6418 154.132 71.0539C152.392 69.6418 150.556 68.3457 148.624 67.1656C140.545 62.2328 131.249 59.6212 121.722 59.6212C114.861 59.6212 108.213 60.9367 101.932 63.5482C95.8632 66.063 90.3939 69.6805 85.6977 74.2845C81.0207 78.8522 77.2846 84.2941 74.7011 90.3019C72.0147 96.5502 70.6426 103.185 70.6426 110.014C70.6426 116.456 71.9568 123.168 74.5658 129.997C76.7496 135.704 79.8805 141.623 83.881 147.601C90.22 157.06 98.9361 166.926 109.759 176.927C127.693 193.506 145.454 204.958 146.208 205.422L150.788 208.362C152.817 209.658 155.426 209.658 157.456 208.362L162.036 205.422C162.79 204.938 180.531 193.506 198.485 176.927C209.308 166.926 218.024 157.06 224.363 147.601C228.363 141.623 231.513 135.704 233.678 129.997C236.287 123.168 237.601 116.456 237.601 110.014C237.621 103.185 236.248 96.5502 233.562 90.3019Z" fill="#EF806F"/>
</mask>
<g mask="url(#mask0_313_5636)">
<path d="M78.1558 145.769H108.208L119.478 119.841L150.783 190.934L160.8 168.352H213.392V163.334H157.879L150.783 178.807L119.895 108.131L104.869 140.75H78.1558V145.769Z" fill="white"/>
</g>
<rect x="205.58" y="16.4517" width="3.98476" height="159.694" fill="#262626"/>
<path fill-rule="evenodd" clip-rule="evenodd" d="M209.564 176.147C209.564 189.927 198.414 201.099 184.659 201.099C170.905 201.099 159.755 189.927 159.754 176.147H163.739C163.739 176.147 163.739 176.147 163.739 176.147C163.739 187.723 173.105 197.107 184.659 197.107C196.213 197.107 205.579 187.723 205.579 176.147C205.579 176.147 205.579 176.147 205.579 176.147H209.564V176.068C209.564 176.094 209.564 176.12 209.564 176.147ZM184.79 151.195C184.746 151.194 184.703 151.194 184.659 151.194C184.616 151.194 184.572 151.194 184.529 151.195H184.79Z" fill="#262626"/>
<ellipse cx="161.747" cy="176.146" rx="1.99239" ry="1.99619" fill="#262626"/>
<ellipse cx="207.572" cy="16.4517" rx="1.99238" ry="1.99618" fill="#262626"/>
<path fill-rule="evenodd" clip-rule="evenodd" d="M282.68 85.5087C277.183 49.2396 245.826 21.4414 207.966 21.4414C170.106 21.4414 138.748 49.2396 133.251 85.5087C140.042 81.7719 147.846 79.6456 156.147 79.6456C165.706 79.6456 174.605 82.4646 182.057 87.3154C189.508 82.4646 198.407 79.6456 207.966 79.6456C217.524 79.6456 226.424 82.4646 233.875 87.3153C241.326 82.4646 250.225 79.6456 259.784 79.6456C268.085 79.6456 275.889 81.7719 282.68 85.5087Z" fill="#B3DFEC"/>
<path fill-rule="evenodd" clip-rule="evenodd" d="M208.052 79.6456C198.493 79.6456 189.594 82.4646 182.142 87.3154L182.062 87.2632C182.27 50.8191 193.789 21.4414 207.968 21.4414C222.147 21.4414 233.665 50.817 233.875 87.2593C226.441 82.4429 217.574 79.6456 208.052 79.6456Z" fill="#9FD7E8"/>
<path d="M92.0114 148.278L56.1152 160.746V198.149C56.1152 218.809 91.5552 231.917 91.5552 231.917C91.5552 231.917 127.908 218.809 127.908 198.149V160.746L92.0114 148.278ZM121.177 198.149C121.177 214.932 108.118 219.449 92.0114 219.449C75.9049 219.449 62.8458 214.932 62.8458 198.149V166.006L92.0114 155.291L121.177 166.006V198.149Z" fill="#9FD7E8"/>
<path d="M79.5243 188.321C79.2124 187.995 78.8417 187.735 78.4334 187.559C78.0251 187.382 77.5874 187.291 77.1453 187.291C76.7031 187.291 76.2654 187.382 75.8571 187.559C75.4488 187.735 75.0781 187.995 74.7662 188.321C74.4529 188.646 74.2042 189.032 74.0346 189.458C73.8649 189.883 73.7776 190.339 73.7776 190.8C73.7776 191.261 73.8649 191.717 74.0346 192.142C74.2042 192.568 74.4529 192.954 74.7662 193.279L87.0588 206.088C87.3538 206.396 87.7043 206.64 88.09 206.807C88.4758 206.973 88.8893 207.059 89.307 207.059C89.7246 207.059 90.1382 206.973 90.5239 206.807C90.9097 206.64 91.2601 206.396 91.5552 206.088L112.448 184.318C112.743 184.01 112.978 183.645 113.138 183.243C113.298 182.841 113.38 182.41 113.38 181.975C113.38 181.54 113.298 181.109 113.138 180.707C112.978 180.305 112.743 179.94 112.448 179.632L112.186 179.36C111.891 179.052 111.541 178.807 111.155 178.641C110.769 178.474 110.356 178.388 109.938 178.388C109.52 178.388 109.107 178.474 108.721 178.641C108.335 178.807 107.985 179.052 107.69 179.36L89.3023 198.51L84.4133 193.415L79.5243 188.321Z" fill="#9FD7E8"/>
<path fill-rule="evenodd" clip-rule="evenodd" d="M121.177 198.149C121.177 214.932 108.118 219.449 92.0114 219.449C75.9049 219.449 62.8458 214.932 62.8458 198.149V166.006L92.0114 155.291L121.177 166.006V198.149ZM78.4334 187.559C78.8417 187.735 79.2124 187.995 79.5243 188.321L84.4133 193.415L89.3023 198.51L107.69 179.36C107.985 179.052 108.335 178.807 108.721 178.641C109.107 178.474 109.52 178.388 109.938 178.388C110.356 178.388 110.769 178.474 111.155 178.641C111.541 178.807 111.891 179.052 112.186 179.36L112.448 179.632C112.743 179.94 112.978 180.305 113.138 180.707C113.298 181.109 113.38 181.54 113.38 181.975C113.38 182.41 113.298 182.841 113.138 183.243C112.978 183.645 112.743 184.01 112.448 184.318L91.5552 206.088C91.2601 206.396 90.9097 206.64 90.5239 206.807C90.1382 206.973 89.7246 207.059 89.307 207.059C88.8893 207.059 88.4758 206.973 88.09 206.807C87.7043 206.64 87.3538 206.396 87.0588 206.088L74.7662 193.279C74.4529 192.954 74.2042 192.568 74.0346 192.142C73.8649 191.717 73.7776 191.261 73.7776 190.8C73.7776 190.339 73.8649 189.883 74.0346 189.458C74.2042 189.032 74.4529 188.646 74.7662 188.321C75.0781 187.995 75.4488 187.735 75.8571 187.559C76.2654 187.382 76.7031 187.291 77.1453 187.291C77.5874 187.291 78.0251 187.382 78.4334 187.559Z" fill="#9FD7E8"/>
<ellipse cx="92.0116" cy="187.588" rx="20.0351" ry="20.0733" fill="white"/>
<rect x="77.8203" y="182.57" width="27.5482" height="9.20024" fill="#EF806F"/>
<rect x="87.0024" y="200.971" width="27.6008" height="9.18274" transform="rotate(-90 87.0024 200.971)" fill="#EF806F"/>
</svg>
