<svg width="26" height="25" viewBox="0 0 26 25" fill="none" xmlns="http://www.w3.org/2000/svg">
<path d="M23.9453 4.24414L20.8251 1.12695C20.605 0.90589 20.3434 0.73049 20.0553 0.610831C19.7673 0.491173 19.4584 0.429613 19.1464 0.429688C18.5107 0.429688 17.913 0.678711 17.4648 1.12695L14.1074 4.48437C13.8863 4.70447 13.7109 4.96608 13.5912 5.25416C13.4716 5.54225 13.41 5.85114 13.4101 6.16309C13.4101 6.79883 13.6591 7.39648 14.1074 7.84473L16.5624 10.2998C15.9878 11.5665 15.1888 12.7188 14.204 13.7012C13.2218 14.6883 12.0696 15.4902 10.8027 16.0684L8.3476 13.6133C8.1275 13.3922 7.8659 13.2168 7.57781 13.0972C7.28972 12.9775 6.98083 12.9159 6.66889 12.916C6.03314 12.916 5.43549 13.165 4.98725 13.6133L1.62689 16.9678C1.40556 17.1883 1.23001 17.4504 1.11034 17.739C0.99068 18.0276 0.929263 18.337 0.929628 18.6494C0.929628 19.2852 1.17865 19.8828 1.62689 20.3311L4.74115 23.4453C5.456 24.1631 6.4433 24.5703 7.45697 24.5703C7.67084 24.5703 7.87592 24.5527 8.07807 24.5176C12.0273 23.8672 15.9443 21.7666 19.1054 18.6084C22.2636 15.4531 24.3613 11.5391 25.0204 7.57812C25.2197 6.36816 24.8183 5.12305 23.9453 4.24414V4.24414Z" fill="white"/>
</svg>
