<svg width="458" height="110" viewBox="0 0 458 110" fill="none" xmlns="http://www.w3.org/2000/svg">
<path fill-rule="evenodd" clip-rule="evenodd" d="M16.1035 16.1099L30.288 30.2984C36.6074 23.9768 45.3379 20.0663 54.9808 20.0663C74.2676 20.0663 89.9021 35.7064 89.9021 55H109.961C109.961 24.6246 85.3454 0 54.9808 0C39.798 0 26.0532 6.15668 16.1035 16.1099Z" fill="#EF806F"/>
<path fill-rule="evenodd" clip-rule="evenodd" d="M30.2876 30.2984L16.1031 16.1099C6.15446 26.0631 0 39.8128 0 55C0 85.3754 24.6158 110 54.9794 110L54.9804 89.9337C35.6947 89.9337 20.0592 74.2936 20.0592 55C20.0592 45.3537 23.9683 36.62 30.2876 30.2984Z" fill="#9FD7E8"/>
<path fill-rule="evenodd" clip-rule="evenodd" d="M89.9017 55C89.9017 74.2936 74.2672 89.9337 54.9805 89.9337V110C85.3451 110 109.961 85.3754 109.961 55H89.9017Z" fill="#FAE961"/>
<path d="M160.073 50.0119V59.8822H157.771V52.2201H128.117V18.6199H130.565V50.0119H152.204V18.6199H154.651V50.0119H160.073ZM191.208 50.0119V52.2201H168.032V18.6199H190.487V20.8281H170.479V34.076H188.377V36.2362H170.479V50.0119H191.208ZM227.092 18.6199V52.2201H224.645V36.2362H202.19V52.2201H199.743V18.6199H202.19V34.076H224.645V18.6199H227.092ZM260.626 20.8281H248.535V52.2201H246.087V20.8281H233.995V18.6199H260.626V20.8281ZM279.573 18.6199C283.796 18.6199 287.107 19.6215 289.505 21.6198C291.904 23.619 293.104 26.3959 293.104 29.9476C293.104 33.4682 291.904 36.2292 289.505 38.2284C287.107 40.2267 283.794 41.2283 279.573 41.2283H269.977V52.2201H267.53V18.6199H279.573ZM279.573 39.0201C283.155 39.0201 285.89 38.2354 287.778 36.668C289.664 35.1006 290.609 32.8605 290.609 29.9476C290.609 27.0357 289.664 24.7876 287.778 23.2042C285.891 21.6218 283.153 20.8281 279.573 20.8281H269.977V39.0201H279.573ZM142.134 91.5131C138.84 91.5131 135.864 90.7684 133.21 89.2809C130.555 87.7935 128.466 85.7523 126.947 83.1603C125.428 80.5693 124.668 77.6734 124.668 74.4726C124.668 71.2728 125.428 68.3769 126.947 65.7849C128.466 63.1939 130.555 61.1527 133.21 59.6652C135.864 58.1778 138.84 57.4331 142.134 57.4331C145.429 57.4331 148.403 58.1698 151.058 59.6413C153.714 61.1127 155.801 63.1459 157.321 65.737C158.84 68.329 159.599 71.2408 159.599 74.4726C159.599 77.7053 158.84 80.6173 157.321 83.2093C155.801 85.8003 153.714 87.8335 151.058 89.3049C148.404 90.7764 145.429 91.5131 142.134 91.5131ZM142.134 89.257C144.949 89.257 147.492 88.6162 149.763 87.3367C152.034 86.0572 153.826 84.2889 155.137 82.0327C156.449 79.7776 157.104 77.2565 157.104 74.4726C157.104 71.6886 156.449 69.1686 155.137 66.9135C153.826 64.6574 152.034 62.889 149.763 61.6095C147.492 60.33 144.949 59.6892 142.134 59.6892C139.319 59.6892 136.768 60.33 134.481 61.6095C132.194 62.889 130.395 64.6574 129.083 66.9135C127.772 69.1686 127.115 71.6886 127.115 74.4726C127.115 77.2565 127.772 79.7766 129.083 82.0327C130.395 84.2889 132.194 86.0572 134.481 87.3367C136.768 88.6162 139.319 89.257 142.134 89.257ZM189.252 59.8812H177.161V91.2732H174.714V59.8812H162.622V57.673H189.252V59.8812ZM217.705 57.673V91.2732H215.259V76.8727C211.388 78.569 207.662 79.4167 204.079 79.4167C200.272 79.4167 197.305 78.497 195.178 76.6567C193.05 74.8174 191.987 72.2335 191.987 68.9048V57.673H194.434V68.6648C194.434 71.3528 195.298 73.449 197.026 74.9524C198.753 76.4569 201.168 77.2085 204.271 77.2085C207.694 77.2085 211.356 76.3449 215.259 74.6166V57.673H217.705ZM252.972 89.065V91.2732H229.797V57.673H252.253V59.8812H232.245V73.1291H250.141V75.2893H232.245V89.065H252.972ZM282.194 59.8812H270.103V91.2732H267.655V59.8812H255.563V57.673H282.194V59.8812ZM316.069 57.673V91.2732H313.622V75.2893H291.166V91.2732H288.719V57.673H291.166V73.1291H313.622V57.673H316.069ZM342.555 91.5131C339.261 91.5131 336.286 90.7694 333.631 89.2809C330.976 87.7925 328.888 85.7523 327.368 83.1603C325.85 80.5693 325.09 77.6734 325.09 74.4726C325.09 71.2728 325.85 68.3769 327.368 65.7849C328.888 63.1929 330.976 61.1527 333.631 59.6652C336.286 58.1768 339.261 57.4331 342.555 57.4331C345.85 57.4331 348.826 58.1688 351.48 59.6413C354.136 61.1127 356.222 63.1449 357.742 65.737C359.261 68.329 360.021 71.2408 360.021 74.4726C360.021 77.7053 359.261 80.6173 357.742 83.2093C356.222 85.8003 354.136 87.8325 351.48 89.3049C348.826 90.7764 345.85 91.5131 342.555 91.5131ZM342.555 89.257C345.37 89.257 347.913 88.6172 350.185 87.3367C352.456 86.0562 354.248 84.2889 355.559 82.0327C356.871 79.7766 357.526 77.2565 357.526 74.4726C357.526 71.6886 356.871 69.1686 355.559 66.9135C354.248 64.6574 352.456 62.889 350.185 61.6095C347.913 60.329 345.37 59.6892 342.555 59.6892C339.74 59.6892 337.189 60.329 334.902 61.6095C332.616 62.889 330.816 64.6574 329.504 66.9135C328.193 69.1686 327.537 71.6886 327.537 74.4726C327.537 77.2565 328.193 79.7766 329.504 82.0327C330.816 84.2889 332.616 86.0562 334.902 87.3367C337.189 88.6172 339.74 89.257 342.555 89.257ZM383.484 91.5131C380.189 91.5131 377.223 90.7764 374.584 89.3049C371.945 87.8325 369.865 85.8003 368.346 83.2093C366.826 80.6173 366.067 77.7053 366.067 74.4726C366.067 71.2408 366.826 68.329 368.346 65.737C369.865 63.1449 371.945 61.1127 374.584 59.6413C377.223 58.1688 380.189 57.4331 383.484 57.4331C385.915 57.4331 388.155 57.8249 390.202 58.6086C392.25 59.3933 393.992 60.5529 395.432 62.0893L393.896 63.6737C391.209 61.0167 387.771 59.6892 383.58 59.6892C380.765 59.6892 378.206 60.329 375.904 61.6095C373.6 62.889 371.793 64.6574 370.482 66.9135C369.17 69.1686 368.514 71.6886 368.514 74.4726C368.514 77.2565 369.17 79.7766 370.482 82.0327C371.793 84.2889 373.6 86.0562 375.904 87.3367C378.206 88.6172 380.765 89.257 383.58 89.257C387.739 89.257 391.177 87.9125 393.896 85.2245L395.432 86.8089C393.992 88.3443 392.242 89.5128 390.178 90.3125C388.115 91.1132 385.883 91.5131 383.484 91.5131ZM423.981 59.8812H411.89V91.2732H409.443V59.8812H397.351V57.673H423.981V59.8812ZM430.506 57.673H432.953V87.1447L455.842 57.673H458V91.2732H455.554V61.8494L432.666 91.2732H430.506V57.673Z" fill="#F8F8FA"/>
<path fill-rule="evenodd" clip-rule="evenodd" d="M248.535 54.8226C248.535 54.1456 247.987 53.5975 247.312 53.5975C246.635 53.5975 246.087 54.1456 246.087 54.8226C246.087 55.4986 246.635 56.0466 247.312 56.0466C247.987 56.0466 248.535 55.4986 248.535 54.8226Z" fill="#F8F8FA"/>
<path fill-rule="evenodd" clip-rule="evenodd" d="M233.517 54.8226C233.517 54.1456 234.064 53.5975 234.74 53.5975C235.416 53.5975 235.964 54.1456 235.964 54.8226C235.964 55.4986 235.416 56.0466 234.74 56.0466C234.064 56.0466 233.517 55.4986 233.517 54.8226Z" fill="#F8F8FA"/>
</svg>
