<svg width="30" height="30" viewBox="0 0 30 30" fill="none" xmlns="http://www.w3.org/2000/svg">
<path d="M13.9283 0.0374184C10.3471 0.303576 7.08055 1.77609 4.51568 4.28212C1.14193 7.57281 -0.475808 12.2323 0.122202 16.9125C0.868851 22.7646 4.99616 27.6384 10.6652 29.3632C15.0483 30.6975 19.9257 29.9059 23.6416 27.2616C28.208 24.0089 30.5827 18.6132 29.8775 13.0895C29.1309 7.23752 25.0036 2.36371 19.3346 0.638866C17.6477 0.123833 15.6808 -0.0939331 13.9283 0.0374184ZM15.0725 9.33222C15.8399 9.40826 16.2235 9.52924 16.3964 9.75392C16.4413 9.81614 16.5139 9.96823 16.5554 10.0927C16.6453 10.3554 16.6487 10.6561 16.5934 12.9029C16.5588 14.3063 16.5796 14.7383 16.6937 15.0494C16.8285 15.4055 17.1257 15.5679 17.3885 15.4331C17.627 15.3087 18.1835 14.6969 18.5465 14.1542C19.3864 12.9098 19.898 11.9454 20.5133 10.4556C20.6378 10.1618 20.8037 9.96823 20.9765 9.9233C21.0457 9.90256 22.0239 9.88527 23.2268 9.88182L25.3527 9.8749L25.5325 9.95095C25.7641 10.0546 25.8539 10.1895 25.8539 10.4349C25.8539 10.9015 25.3665 11.859 24.53 13.0308C24.4159 13.1932 23.9839 13.767 23.5725 14.3097C22.6634 15.5057 22.4664 15.7857 22.3281 16.076C22.1553 16.4424 22.1967 16.7432 22.4698 17.0992C22.5493 17.1994 22.9503 17.6039 23.3616 17.9979C24.5127 19.1006 25.0347 19.6813 25.4599 20.3173C25.7641 20.777 25.8816 21.1158 25.8332 21.4061C25.809 21.5651 25.65 21.7552 25.4702 21.8486C25.2559 21.9557 24.9275 21.9765 23.1197 22.0007L21.4086 22.0249L21.1321 21.9315C20.4269 21.6965 19.9568 21.3059 18.8887 20.0684C18.2976 19.384 17.8586 19.0487 17.5544 19.0453C17.2744 19.0453 16.9183 19.4186 16.7663 19.8818C16.6625 20.1929 16.6245 20.4314 16.5934 20.9706C16.5554 21.6066 16.4793 21.7552 16.0887 21.9177C15.947 21.9799 14.1841 22.0007 13.7174 21.9523C12.7807 21.8486 11.913 21.5548 11.0523 21.0466C9.80444 20.3138 9.04051 19.6571 8.22127 18.6132C6.79711 16.795 5.82577 15.2465 4.64703 12.9098C4.19075 12.0007 3.65496 10.8255 3.56854 10.5455C3.48212 10.2551 3.60656 10.0166 3.89001 9.92675C3.9868 9.89564 4.52605 9.87836 5.77046 9.86108L7.5161 9.84379L7.72005 9.91984C8.04152 10.0443 8.17633 10.2033 8.3941 10.7321C8.58077 11.178 9.58667 13.1967 9.90123 13.7601C10.2227 14.3305 10.5649 14.8075 10.8587 15.0909C11.2217 15.4469 11.3842 15.5334 11.64 15.5126C11.8577 15.4919 11.9165 15.4435 12.0513 15.1497C12.3797 14.4411 12.4315 12.0456 12.1377 11.1055C11.9683 10.5697 11.716 10.3657 11.0177 10.2171C10.8968 10.1895 10.8968 10.148 11.0074 9.98551C11.277 9.59838 11.7575 9.41172 12.6735 9.33567C13.1747 9.2942 14.6611 9.29074 15.0725 9.33222Z" fill="#262626"/>
</svg>
