<svg width="341" height="253" viewBox="0 0 341 253" fill="none" xmlns="http://www.w3.org/2000/svg">
<ellipse cx="46.3522" cy="133.471" rx="30.9206" ry="41.8798" fill="#05D197"/>
<path d="M46.3519 126.586L52.078 211.493H40.626L46.3519 126.586Z" fill="#F3CD8E"/>
<path d="M23.9775 148.056L45.3109 157.647L46.3441 164.869L23.9775 148.056Z" fill="#F3CD8E"/>
<path d="M68.7506 148.056L47.4172 157.647L46.3839 164.869L68.7506 148.056Z" fill="#F3CD8E"/>
<rect x="101.895" y="37.0898" width="18.3233" height="28.6848" fill="#262626"/>
<rect x="96.1685" y="27.9106" width="29.7754" height="9.17914" fill="#363636"/>
<rect x="101.895" y="40.5322" width="8.01646" height="4.01587" fill="#363636"/>
<rect x="101.895" y="40.5322" width="8.01646" height="4.01587" fill="#363636"/>
<rect x="101.895" y="40.5322" width="8.01646" height="4.01587" fill="#363636"/>
<rect x="101.895" y="40.5322" width="8.01646" height="4.01587" fill="#363636"/>
<rect x="101.895" y="56.022" width="8.01646" height="4.01587" fill="#363636"/>
<rect x="101.895" y="56.022" width="8.01646" height="4.01587" fill="#363636"/>
<rect x="101.895" y="56.022" width="8.01646" height="4.01587" fill="#363636"/>
<rect x="101.895" y="56.022" width="8.01646" height="4.01587" fill="#363636"/>
<rect x="109.911" y="48.564" width="8.01646" height="4.01587" fill="#363636"/>
<rect x="109.911" y="48.564" width="8.01646" height="4.01587" fill="#363636"/>
<rect x="109.911" y="48.564" width="8.01646" height="4.01587" fill="#363636"/>
<rect x="109.911" y="48.564" width="8.01646" height="4.01587" fill="#363636"/>
<path fill-rule="evenodd" clip-rule="evenodd" d="M254.78 94.7479L158.582 23.8945L62.3853 94.7473V101.917H254.78V94.7479Z" fill="#EF806F"/>
<rect x="70.9736" y="96.1797" width="175.217" height="92.9388" fill="#EAEAF0"/>
<path d="M158.582 35.3682L246.19 96.18H70.9736L158.582 35.3682Z" fill="#EAEAF0"/>
<rect x="77.1582" y="94.875" width="162.734" height="94.1722" fill="white"/>
<path d="M158.525 39.3555L239.892 94.8749H77.1582L158.525 39.3555Z" fill="white"/>
<rect x="91.2607" y="121.996" width="32.7202" height="30.45" fill="#F3CD8E"/>
<rect width="36.6466" height="3.97173" transform="matrix(1 0 0 -1 89.2974 156.418)" fill="#F3CD8E"/>
<rect x="93.8784" y="124.644" width="12.4337" height="12.5772" fill="#9FD7E8"/>
<path d="M106.312 124.644L93.8784 137.221V124.644H106.312Z" fill="#B3DFEC"/>
<rect x="108.929" y="124.644" width="12.4337" height="12.5772" fill="#9FD7E8"/>
<path d="M121.363 124.644L108.929 137.221V124.644H121.363Z" fill="#B3DFEC"/>
<rect x="93.8784" y="139.87" width="12.4337" height="12.5772" fill="#9FD7E8"/>
<path d="M106.312 139.87L93.8784 152.447V139.87H106.312Z" fill="#B3DFEC"/>
<rect x="108.929" y="139.87" width="12.4337" height="12.5772" fill="#9FD7E8"/>
<path d="M121.363 139.87L108.929 152.447V139.87H121.363Z" fill="#B3DFEC"/>
<rect x="189.176" y="121.792" width="32.7202" height="30.4499" fill="#F3CD8E"/>
<rect width="36.6466" height="3.97171" transform="matrix(1 0 0 -1 187.212 156.213)" fill="#F3CD8E"/>
<rect x="191.793" y="124.439" width="12.4337" height="12.5771" fill="#9FD7E8"/>
<path d="M204.227 124.439L191.793 137.017V124.439H204.227Z" fill="#B3DFEC"/>
<rect x="206.844" y="124.439" width="12.4337" height="12.5771" fill="#9FD7E8"/>
<path d="M219.278 124.439L206.844 137.017V124.439H219.278Z" fill="#B3DFEC"/>
<rect x="191.793" y="139.664" width="12.4337" height="12.5771" fill="#9FD7E8"/>
<path d="M204.227 139.664L191.793 152.241V139.664H204.227Z" fill="#B3DFEC"/>
<rect x="206.844" y="139.664" width="12.4337" height="12.5771" fill="#9FD7E8"/>
<path d="M219.278 139.664L206.844 152.241V139.664H219.278Z" fill="#B3DFEC"/>
<rect x="70.9741" y="188.545" width="175.217" height="22.9478" fill="#EAEAF0"/>
<rect x="102.467" y="95.0327" width="17.1781" height="8.60544" fill="#EAEAF0"/>
<rect x="119.645" y="86.4272" width="17.1781" height="8.60545" fill="#EAEAF0"/>
<rect x="171.18" y="95.0327" width="17.1781" height="8.60544" fill="#EAEAF0"/>
<rect x="188.358" y="86.4272" width="17.1781" height="8.60545" fill="#EAEAF0"/>
<rect x="154.001" y="60.6108" width="17.1781" height="8.60545" fill="#EAEAF0"/>
<rect x="119.645" y="103.638" width="17.1781" height="8.60544" fill="#EAEAF0"/>
<rect x="85.2891" y="172.481" width="17.1781" height="8.60544" fill="#EAEAF0"/>
<rect x="205.536" y="163.876" width="17.1781" height="8.60542" fill="#EAEAF0"/>
<rect x="222.714" y="103.638" width="17.1781" height="8.60544" fill="#EAEAF0"/>
<rect x="138.827" y="132.419" width="36.0741" height="74.9635" fill="#F3CD8E"/>
<rect width="40.0822" height="4.0159" transform="matrix(1 0 0 -1 136.823 211.397)" fill="#363636"/>
<rect x="141.583" y="135.016" width="14.0288" height="21.4182" fill="white"/>
<rect x="141.583" y="183.206" width="14.0288" height="21.4182" fill="white"/>
<rect x="141.583" y="159.112" width="14.0288" height="21.4182" fill="white"/>
<rect x="158.284" y="135.016" width="14.0288" height="21.4182" fill="white"/>
<rect x="158.284" y="159.112" width="14.0288" height="21.4182" fill="white"/>
<rect x="158.284" y="183.206" width="14.0288" height="21.4182" fill="white"/>
<rect x="142.919" y="136.354" width="11.3566" height="18.7409" fill="#F3CD8E"/>
<rect x="159.619" y="136.354" width="11.3566" height="18.7409" fill="#F3CD8E"/>
<rect x="142.919" y="160.45" width="11.3566" height="18.7409" fill="#F3CD8E"/>
<rect x="159.619" y="160.45" width="11.3566" height="18.7409" fill="#F3CD8E"/>
<rect x="142.919" y="184.545" width="11.3566" height="18.7409" fill="#F3CD8E"/>
<rect x="159.619" y="184.545" width="11.3566" height="18.7409" fill="#F3CD8E"/>
<ellipse cx="142.252" cy="169.82" rx="2.00412" ry="2.00796" fill="#FAE961"/>
<path d="M300.873 175.422L337.882 185.534L338.38 185.677V200.808L334.893 204.322H203.154L199.667 200.808V199.231V175.422L219.666 153.263L283.649 157.136L300.873 175.422Z" fill="#FE8C7B"/>
<path d="M309.822 202.171C309.822 203.084 309.084 203.822 308.175 203.822C307.266 203.822 306.528 203.084 306.528 202.171C306.528 201.258 307.266 200.52 308.175 200.52C309.084 200.52 309.822 201.258 309.822 202.171Z" stroke="black"/>
<mask id="mask0_313_5770" style="mask-type:alpha" maskUnits="userSpaceOnUse" x="199" y="178" width="141" height="23">
<path d="M199.667 178.792L339.239 187.9V200.306H199.667V178.792Z" fill="white"/>
</mask>
<g mask="url(#mask0_313_5770)">
<path d="M300.872 175.422L337.882 185.534L338.38 185.677V200.808L334.892 204.322H203.154L199.667 200.808V199.231V175.422L219.666 153.263L283.649 157.136L300.872 175.422Z" fill="#EF806F"/>
</g>
<path fill-rule="evenodd" clip-rule="evenodd" d="M223.409 156.706L246.721 158.111L248.851 174.204H207.559L223.409 156.706ZM293.873 174.204L280.591 160.154L251.088 158.375L253.183 174.204H293.873Z" fill="#9FD7E8"/>
<path d="M197.52 195.43L214.411 197.797V202.601H197.52V195.43Z" fill="#F8F8FA"/>
<path d="M197.52 198.873L214.411 200.103V202.602H197.52V198.873Z" fill="#F4F4F8"/>
<path d="M321.059 194.856L340.384 197.007V202.601H321.919L321.059 194.856Z" fill="#F4F4F8"/>
<path fill-rule="evenodd" clip-rule="evenodd" d="M340.384 197.007L321.059 194.856L321.539 199.182L340.384 200.115V197.007ZM340.384 202.601H321.919V202.601H340.384V202.601Z" fill="#F8F8FA"/>
<ellipse cx="308.175" cy="202.171" rx="9.8774" ry="9.89627" fill="#363636"/>
<ellipse cx="308.175" cy="202.171" rx="6.29863" ry="6.31065" fill="#EAEAF0"/>
<ellipse cx="308.175" cy="202.171" rx="2.14729" ry="2.15137" fill="#363636"/>
<ellipse cx="228.011" cy="202.171" rx="9.8774" ry="9.89627" fill="#363636"/>
<ellipse cx="228.011" cy="202.171" rx="6.29865" ry="6.31065" fill="#EAEAF0"/>
<ellipse cx="228.011" cy="202.171" rx="2.14728" ry="2.15137" fill="#363636"/>
<mask id="mask1_313_5770" style="mask-type:alpha" maskUnits="userSpaceOnUse" x="199" y="148" width="87" height="43">
<rect width="18.7602" height="31.8397" transform="matrix(0.890519 -0.454947 0.453573 0.891219 254.637 157.208)" fill="#C4C4C4"/>
<rect width="26.3048" height="31.8397" transform="matrix(0.890518 -0.454947 0.453572 0.891219 199.06 162.199)" fill="#C4C4C4"/>
</mask>
<g mask="url(#mask1_313_5770)">
<path fill-rule="evenodd" clip-rule="evenodd" d="M223.409 156.706L246.721 158.112L248.851 174.204H207.559L223.409 156.706ZM293.873 174.204L280.591 160.154L251.088 158.375L253.183 174.204H293.873Z" fill="#B3DFEC"/>
</g>
<ellipse cx="294.433" cy="175.566" rx="1.57466" ry="1.7928" fill="#EF806F"/>
<ellipse cx="293.001" cy="171.765" rx="2.00412" ry="2.00794" fill="#EF806F"/>
<ellipse cx="293.001" cy="174.203" rx="2.00412" ry="2.00793" fill="#EF806F"/>
<rect x="290.997" y="171.622" width="4.00824" height="2.58165" fill="#EF806F"/>
<path fill-rule="evenodd" clip-rule="evenodd" d="M203.532 187.254C199.506 187.685 198.378 188.258 198.378 190.553C198.378 192.848 199.506 193.422 203.532 193.852V187.254Z" fill="#FE8C7B"/>
<path fill-rule="evenodd" clip-rule="evenodd" d="M338.38 195.286C338.38 195.286 338.38 195.286 338.38 195.286C335.217 195.286 332.654 192.718 332.654 189.55H338.38V195.286ZM338.422 183.813H338.38H338.338L338.38 183.812L338.422 183.813Z" fill="#FE8C7B"/>
<mask id="mask2_313_5770" style="mask-type:alpha" maskUnits="userSpaceOnUse" x="82" y="191" width="40" height="30">
<ellipse cx="101.895" cy="201.167" rx="9.73427" ry="9.75284" fill="#05D197"/>
<ellipse cx="92.1605" cy="210.92" rx="9.73426" ry="9.75284" fill="#05D197"/>
<ellipse cx="111.629" cy="210.92" rx="9.73426" ry="9.75284" fill="#05D197"/>
</mask>
<g mask="url(#mask2_313_5770)">
<rect width="54.97" height="21.2267" transform="matrix(1 0 0 -1 74.1235 211.493)" fill="#05D197"/>
</g>
</svg>
